<svg width="239" height="171" viewBox="0 0 239 171" fill="none" xmlns="http://www.w3.org/2000/svg">
<g clip-path="url(#clip0_204_4953)">
<path opacity="0.1" d="M138.782 30.1573C123.524 29.6286 108.981 24.7171 95.1145 19.3446C81.2481 13.9721 67.5045 8.01845 52.6039 5.17162C43.0237 3.33855 32.0674 3.08074 24.3497 8.20198C16.9213 13.1288 14.5219 21.6343 13.2312 29.5259C12.2605 35.4643 11.6974 41.7129 14.351 47.2733C16.1982 51.1317 19.4764 54.3762 21.7443 58.0729C29.6329 70.935 24.0561 86.7968 15.5058 99.3661C11.4958 105.265 6.8437 110.878 3.74963 117.151C0.655567 123.423 -0.77752 130.609 1.93088 137.006C4.61519 143.342 11.0093 148.11 17.9381 151.459C32.0104 158.256 48.5917 160.201 64.7611 161.315C100.553 163.755 136.538 162.698 172.425 161.64C185.706 161.247 199.046 160.852 212.111 158.8C219.366 157.662 226.858 155.857 232.126 151.501C238.811 145.969 240.47 136.604 235.989 129.668C228.473 118.036 207.693 115.145 202.438 102.661C199.548 95.7896 202.517 88.1339 206.72 81.7608C215.733 68.0903 230.844 56.0956 231.639 40.4675C232.187 29.7335 224.923 18.9863 213.69 13.9066C201.919 8.57777 185.594 9.25069 176.91 18.0577C167.967 27.1313 152.252 30.6227 138.782 30.1573Z" fill="#24CB77"/>
<path d="M53.5835 158.409C53.5835 158.409 41.5315 149.324 39.2548 137.769C38.3315 132.916 35.855 128.491 32.1967 125.16C30.4466 123.593 28.5565 122.189 26.5498 120.965" stroke="#535461" stroke-width="2" stroke-miterlimit="10"/>
<path d="M25.0751 113.686C26.1313 115.11 26.609 121.147 26.609 121.147C26.609 121.147 20.9621 118.929 19.9037 117.507C19.3955 116.823 19.1805 115.966 19.306 115.124C19.4316 114.282 19.8873 113.525 20.5731 113.018C21.2589 112.511 22.1185 112.297 22.9627 112.422C23.807 112.547 24.5668 113.002 25.0751 113.686Z" fill="#24CB77"/>
<path d="M35.203 118.422C35.3126 120.19 32.4267 125.516 32.4267 125.516C32.4267 125.516 28.8922 120.592 28.7804 118.824C28.7379 117.981 29.0301 117.156 29.5938 116.527C30.1574 115.897 30.947 115.515 31.7915 115.462C32.6361 115.409 33.4675 115.69 34.1056 116.244C34.7438 116.798 35.1373 117.581 35.2008 118.422H35.203Z" fill="#24CB77"/>
<path d="M45.02 132.038C44.2224 133.62 39.0313 136.766 39.0313 136.766C39.0313 136.766 38.4769 130.736 39.2745 129.154C39.6672 128.41 40.337 127.85 41.1399 127.593C41.9428 127.337 42.8146 127.405 43.5676 127.783C44.3206 128.161 44.8948 128.819 45.1664 129.614C45.438 130.41 45.3855 131.28 45.02 132.038Z" fill="#24CB77"/>
<path d="M50.1233 144.002C49.604 145.695 45.0221 149.67 45.0221 149.67C45.0221 149.67 43.4509 143.821 43.9703 142.125C44.2199 141.312 44.7834 140.63 45.5368 140.231C46.2903 139.832 47.172 139.747 47.9879 139.996C48.8039 140.245 49.4873 140.807 49.8877 141.558C50.2882 142.31 50.3729 143.189 50.1233 144.002Z" fill="#24CB77"/>
<path d="M27.2029 129.799C28.9559 130.034 34.4976 127.539 34.4976 127.539C34.4976 127.539 29.8214 123.677 28.0597 123.441C27.2141 123.327 26.358 123.554 25.6797 124.07C25.0015 124.586 24.5566 125.349 24.443 126.192C24.3294 127.036 24.5563 127.889 25.0739 128.565C25.5915 129.242 26.3573 129.685 27.2029 129.799Z" fill="#24CB77"/>
<path d="M33.3492 143.718C35.1022 143.418 39.6316 139.387 39.6316 139.387C39.6316 139.387 34.0088 137.098 32.2579 137.397C31.8388 137.466 31.4373 137.616 31.0768 137.84C30.7164 138.064 30.4039 138.357 30.1576 138.702C29.9113 139.047 29.7359 139.438 29.6417 139.851C29.5474 140.264 29.5362 140.691 29.6085 141.108C29.6809 141.526 29.8354 141.925 30.0632 142.282C30.291 142.64 30.5875 142.949 30.9357 143.191C31.2839 143.434 31.6768 143.605 32.0918 143.696C32.5068 143.786 32.9357 143.794 33.3536 143.718H33.3492Z" fill="#24CB77"/>
<path d="M41.1831 156.432C42.9602 156.432 48.1097 153.222 48.1097 153.222C48.1097 153.222 42.958 150.017 41.1809 150.017C40.3277 150.017 39.5095 150.355 38.9063 150.956C38.303 151.558 37.9641 152.374 37.9641 153.224C37.9641 154.075 38.303 154.891 38.9063 155.492C39.5095 156.094 40.3277 156.432 41.1809 156.432H41.1831Z" fill="#24CB77"/>
<path d="M170.663 79.8359C170.663 79.8359 178.091 66.716 189.289 62.9363C193.99 61.3794 198.059 58.3444 200.885 54.2865C202.21 52.3466 203.353 50.2893 204.301 48.1406" stroke="#535461" stroke-width="2" stroke-miterlimit="10"/>
<path d="M211.331 45.737C210.055 46.9693 204.119 48.2452 204.119 48.2452C204.119 48.2452 205.576 42.368 206.852 41.1336C207.467 40.5589 208.284 40.2483 209.128 40.2685C209.971 40.2887 210.772 40.6382 211.359 41.2417C211.946 41.8451 212.272 42.6544 212.267 43.4951C212.262 44.3359 211.925 45.141 211.331 45.737Z" fill="#24CB77"/>
<path d="M207.974 56.3619C206.221 56.7071 200.552 54.5616 200.552 54.5616C200.552 54.5616 204.978 50.4104 206.72 50.0718C207.138 49.9792 207.571 49.9709 207.993 50.0474C208.414 50.1238 208.816 50.2834 209.175 50.5169C209.534 50.7503 209.842 51.0529 210.082 51.4068C210.322 51.7607 210.489 52.1589 210.572 52.5779C210.656 52.9969 210.654 53.4284 210.568 53.8469C210.482 54.2654 210.313 54.6625 210.071 55.015C209.829 55.3675 209.519 55.6682 209.159 55.8995C208.799 56.1308 208.396 56.288 207.974 56.3619Z" fill="#24CB77"/>
<path d="M195.755 67.8715C194.076 67.2925 190.261 62.5821 190.261 62.5821C190.261 62.5821 196.178 61.2318 197.861 61.8108C198.265 61.9445 198.639 62.157 198.96 62.4359C199.281 62.7148 199.544 63.0546 199.733 63.4354C199.921 63.8163 200.032 64.2307 200.058 64.6547C200.085 65.0786 200.027 65.5036 199.888 65.9049C199.748 66.3063 199.53 66.676 199.246 66.9927C198.962 67.3093 198.618 67.5666 198.234 67.7495C197.849 67.9325 197.432 68.0375 197.007 68.0584C196.581 68.0794 196.156 68.0158 195.755 67.8715Z" fill="#24CB77"/>
<path d="M184.527 74.505C182.774 74.2166 178.225 70.2075 178.225 70.2075C178.225 70.2075 183.832 67.8784 185.583 68.1668C186.426 68.305 187.179 68.7713 187.677 69.4632C188.175 70.155 188.376 71.0157 188.238 71.8559C188.099 72.6961 187.632 73.447 186.938 73.9434C186.244 74.4398 185.381 74.641 184.538 74.5028L184.527 74.505Z" fill="#24CB77"/>
<path d="M195.602 49.9669C195.599 51.7388 198.823 56.8797 198.823 56.8797C198.823 56.8797 202.042 51.7453 202.042 49.9756C202.053 49.5475 201.978 49.1215 201.821 48.7227C201.665 48.324 201.43 47.9605 201.13 47.6538C200.83 47.347 200.472 47.1032 200.076 46.9368C199.681 46.7703 199.256 46.6846 198.826 46.6846C198.397 46.6846 197.971 46.7703 197.576 46.9368C197.18 47.1032 196.822 47.347 196.522 47.6538C196.222 47.9605 195.987 48.324 195.831 48.7227C195.674 49.1215 195.599 49.5475 195.61 49.9756L195.602 49.9669Z" fill="#24CB77"/>
<path d="M182.579 57.8892C183.109 59.5803 187.72 63.5239 187.72 63.5239C187.72 63.5239 189.253 57.6642 188.719 55.9731C188.442 55.1896 187.87 54.544 187.125 54.1722C186.38 53.8003 185.519 53.7313 184.724 53.9796C183.929 54.228 183.261 54.7743 182.862 55.5035C182.463 56.2327 182.363 57.088 182.583 57.8892H182.579Z" fill="#24CB77"/>
<path d="M170.994 67.3214C171.23 69.0692 175.105 73.7382 175.105 73.7382C175.105 73.7382 177.605 68.2215 177.368 66.4671C177.321 66.042 177.189 65.6306 176.981 65.257C176.772 64.8834 176.49 64.5553 176.152 64.2918C175.815 64.0283 175.427 63.8349 175.013 63.7229C174.599 63.6108 174.167 63.5825 173.742 63.6394C173.317 63.6964 172.908 63.8376 172.538 64.0546C172.169 64.2716 171.846 64.5602 171.59 64.9032C171.334 65.2463 171.149 65.6369 171.047 66.0522C170.945 66.4675 170.926 66.899 170.994 67.3214Z" fill="#24CB77"/>
<path opacity="0.25" d="M211.331 45.737C210.055 46.9693 204.119 48.2452 204.119 48.2452C204.119 48.2452 205.576 42.368 206.852 41.1336C207.467 40.5589 208.284 40.2483 209.128 40.2685C209.971 40.2887 210.772 40.6382 211.359 41.2417C211.946 41.8451 212.272 42.6544 212.267 43.4951C212.262 44.3359 211.925 45.141 211.331 45.737Z" fill="black"/>
<path opacity="0.25" d="M207.974 56.3619C206.221 56.7071 200.552 54.5616 200.552 54.5616C200.552 54.5616 204.978 50.4104 206.72 50.0718C207.138 49.9792 207.571 49.9709 207.993 50.0474C208.414 50.1238 208.816 50.2834 209.175 50.5169C209.534 50.7503 209.842 51.0529 210.082 51.4068C210.322 51.7607 210.489 52.1589 210.572 52.5779C210.656 52.9969 210.654 53.4284 210.568 53.8469C210.482 54.2654 210.313 54.6625 210.071 55.015C209.829 55.3675 209.519 55.6682 209.159 55.8995C208.799 56.1308 208.396 56.288 207.974 56.3619Z" fill="black"/>
<path opacity="0.25" d="M195.755 67.8715C194.076 67.2925 190.261 62.5821 190.261 62.5821C190.261 62.5821 196.178 61.2318 197.861 61.8108C198.265 61.9445 198.639 62.157 198.96 62.4359C199.281 62.7148 199.544 63.0546 199.733 63.4354C199.921 63.8163 200.032 64.2307 200.058 64.6547C200.085 65.0786 200.027 65.5036 199.888 65.9049C199.748 66.3063 199.53 66.676 199.246 66.9927C198.962 67.3093 198.618 67.5666 198.234 67.7495C197.849 67.9325 197.432 68.0375 197.007 68.0584C196.581 68.0794 196.156 68.0158 195.755 67.8715Z" fill="black"/>
<path opacity="0.25" d="M184.527 74.505C182.774 74.2166 178.225 70.2075 178.225 70.2075C178.225 70.2075 183.832 67.8784 185.583 68.1668C186.426 68.305 187.179 68.7713 187.677 69.4632C188.175 70.155 188.376 71.0157 188.238 71.8559C188.099 72.6961 187.632 73.447 186.938 73.9434C186.244 74.4398 185.381 74.641 184.538 74.5028L184.527 74.505Z" fill="black"/>
<path opacity="0.25" d="M195.602 49.9669C195.599 51.7388 198.823 56.8797 198.823 56.8797C198.823 56.8797 202.042 51.7453 202.042 49.9756C202.053 49.5475 201.978 49.1215 201.821 48.7227C201.665 48.324 201.43 47.9605 201.13 47.6538C200.83 47.347 200.472 47.1032 200.076 46.9368C199.681 46.7703 199.256 46.6846 198.826 46.6846C198.397 46.6846 197.971 46.7703 197.576 46.9368C197.18 47.1032 196.822 47.347 196.522 47.6538C196.222 47.9605 195.987 48.324 195.831 48.7227C195.674 49.1215 195.599 49.5475 195.61 49.9756L195.602 49.9669Z" fill="black"/>
<path opacity="0.25" d="M182.579 57.8892C183.109 59.5803 187.72 63.5239 187.72 63.5239C187.72 63.5239 189.253 57.6642 188.719 55.9731C188.442 55.1896 187.87 54.544 187.125 54.1722C186.38 53.8003 185.519 53.7313 184.724 53.9796C183.929 54.228 183.261 54.7743 182.862 55.5035C182.463 56.2327 182.363 57.088 182.583 57.8892H182.579Z" fill="black"/>
<path opacity="0.25" d="M170.994 67.3214C171.23 69.0692 175.105 73.7382 175.105 73.7382C175.105 73.7382 177.605 68.2215 177.368 66.4671C177.321 66.042 177.189 65.6306 176.981 65.257C176.772 64.8834 176.49 64.5553 176.152 64.2918C175.815 64.0283 175.427 63.8349 175.013 63.7229C174.599 63.6108 174.167 63.5825 173.742 63.6394C173.317 63.6964 172.908 63.8376 172.538 64.0546C172.169 64.2716 171.846 64.5602 171.59 64.9032C171.334 65.2463 171.149 65.6369 171.047 66.0522C170.945 66.4675 170.926 66.899 170.994 67.3214Z" fill="black"/>
<path d="M171.09 79.5756C171.09 79.5756 172.549 64.579 181.24 56.6043C184.906 53.2808 187.392 48.8623 188.327 44.011C188.752 41.7047 188.964 39.3644 188.96 37.0195" stroke="#535461" stroke-width="2" stroke-miterlimit="10"/>
<path d="M194.407 31.9594C193.75 33.6024 188.833 37.1681 188.833 37.1681C188.833 37.1681 187.777 31.2057 188.441 29.5627C188.76 28.7738 189.381 28.1438 190.167 27.8113C190.952 27.4788 191.838 27.471 192.629 27.7897C193.42 28.1084 194.052 28.7274 194.386 29.5107C194.719 30.2939 194.727 31.1771 194.407 31.966V31.9594Z" fill="#24CB77"/>
<path d="M195.659 43.0411C194.206 44.0592 188.143 44.3935 188.143 44.3935C188.143 44.3935 190.505 38.8134 191.958 37.7953C192.302 37.5382 192.695 37.3526 193.113 37.2496C193.53 37.1466 193.965 37.1282 194.39 37.1955C194.815 37.2628 195.222 37.4145 195.587 37.6415C195.952 37.8685 196.268 38.1663 196.516 38.5172C196.763 38.8681 196.938 39.265 197.029 39.6844C197.12 40.1037 197.126 40.5371 197.046 40.9587C196.966 41.3803 196.802 41.7817 196.564 42.139C196.325 42.4963 196.018 42.8023 195.659 43.0389V43.0411Z" fill="#24CB77"/>
<path d="M189.159 58.5051C187.389 58.6537 181.985 55.8833 181.985 55.8833C181.985 55.8833 186.85 52.2565 188.62 52.108C189.471 52.0367 190.314 52.3051 190.966 52.8541C191.618 53.4032 192.024 54.1879 192.096 55.0356C192.167 55.8834 191.898 56.7247 191.347 57.3745C190.797 58.0244 190.01 58.4295 189.159 58.5008V58.5051Z" fill="#24CB77"/>
<path d="M181.597 69.0996C179.877 69.5365 174.083 67.7297 174.083 67.7297C174.083 67.7297 178.262 63.336 179.982 62.8903C180.808 62.6768 181.685 62.7991 182.42 63.2303C183.156 63.6616 183.689 64.3664 183.903 65.1898C184.118 66.0132 183.995 66.8877 183.562 67.621C183.13 68.3542 182.423 68.8861 181.597 69.0996Z" fill="#24CB77"/>
<path d="M181.751 42.1933C182.469 43.8123 187.496 47.2184 187.496 47.2184C187.496 47.2184 188.351 41.2232 187.632 39.6043C187.274 38.8468 186.633 38.2591 185.846 37.9666C185.059 37.6742 184.188 37.7002 183.42 38.0391C182.652 38.378 182.048 39.003 181.736 39.7805C181.424 40.558 181.429 41.4263 181.751 42.1999V42.1933Z" fill="#24CB77"/>
<path d="M173.064 54.695C174.237 56.0255 180.052 57.769 180.052 57.769C180.052 57.769 179.071 51.7935 177.898 50.463C177.622 50.1397 177.283 49.8746 176.903 49.6828C176.522 49.4911 176.108 49.3767 175.683 49.3462C175.257 49.3157 174.83 49.3697 174.426 49.5051C174.022 49.6406 173.649 49.8547 173.329 50.1351C173.009 50.4155 172.748 50.7566 172.561 51.1385C172.374 51.5204 172.265 51.9356 172.24 52.3598C172.216 52.7841 172.276 53.209 172.417 53.6099C172.559 54.0108 172.779 54.3796 173.064 54.695Z" fill="#24CB77"/>
<path d="M166.296 68.0048C167.225 69.5123 172.661 72.2106 172.661 72.2106C172.661 72.2106 172.707 66.1564 171.785 64.6467C171.326 63.9496 170.612 63.4583 169.796 63.2769C168.979 63.0956 168.124 63.2385 167.411 63.6753C166.699 64.1121 166.185 64.8084 165.979 65.6167C165.772 66.425 165.89 67.2815 166.307 68.0048H166.296Z" fill="#24CB77"/>
<path d="M159.915 20.8453C160.278 19.5147 160.717 18.1776 161.023 16.8296C160.655 18.1776 160.215 19.5191 159.915 20.8453Z" fill="url(#paint0_linear_204_4953)"/>
<path d="M158.284 33.6619C158.254 33.6094 158.232 33.557 158.208 33.5089C158.208 33.4871 158.186 33.4696 158.177 33.4477C158.129 33.4702 158.08 33.4899 158.03 33.5067C157.934 33.5439 157.835 33.5788 157.734 33.6072C157.633 33.6356 157.592 33.6509 157.515 33.6684C157.452 33.6903 157.386 33.7071 157.32 33.7187L157.338 33.758C157.419 33.7405 157.498 33.7252 157.579 33.7034L157.601 33.9743C157.693 33.9743 157.778 33.9612 157.861 33.9612C157.901 33.959 157.94 33.959 157.98 33.9612C158.151 33.9612 158.3 33.9612 158.418 33.9612C158.372 33.8629 158.324 33.7602 158.284 33.6619ZM202.767 104.26C201.737 102.877 199.682 88.0335 199.682 88.0335C199.682 88.0335 195.639 77.4786 196.741 73.2662C197.843 69.0539 193.73 58.2761 193.73 58.2761C193.73 58.2761 191.013 57.0985 190.866 55.3507C190.866 55.3507 179.772 51.8549 179.252 49.2331C178.832 47.0833 171.951 45.5408 169.479 45.0536C168.726 42.021 167.967 39.1917 167.409 37.647C167.258 37.1663 167.115 36.7512 166.984 36.4235C166.039 34.0202 163.12 33.8017 161.004 33.9939C160.912 33.5843 160.742 33.1963 160.502 32.8513C160.467 32.7327 160.397 32.627 160.302 32.5476C160.257 32.509 160.209 32.4739 160.158 32.4427C160.119 32.3719 160.069 32.3083 160.009 32.2548C159.949 32.2008 159.882 32.1539 159.812 32.115C159.761 32.0875 159.708 32.0634 159.654 32.0429C159.527 31.9947 159.395 31.9588 159.262 31.9358C159.106 31.9038 158.947 31.8834 158.788 31.8747C159.175 31.706 159.52 31.4546 159.798 31.1384C159.988 30.9164 160.129 30.6574 160.213 30.3781C160.282 30.1457 160.313 29.9037 160.305 29.6614C160.248 29.7613 160.182 29.8556 160.107 29.9433C160.199 28.9754 159.687 27.9922 159.393 27.0287C159.037 25.7744 158.971 24.4559 159.2 23.1725C159.494 21.2367 160.221 19.2791 160.714 17.3084C160.716 17.2975 160.716 17.2865 160.714 17.2756C160.973 16.2969 161.133 15.295 161.192 14.2846C161.278 12.2462 160.754 10.2121 159.912 8.35498C159.165 6.7098 158.063 5.09085 156.376 4.42229C155.122 3.91759 153.718 3.99843 152.368 3.91541C149.34 3.72751 146.451 2.66569 143.572 1.69999C140.693 0.734298 137.73 -0.144003 134.7 0.0242284C131.669 0.19246 128.551 1.64974 127.168 4.32397C126.73 5.15858 126.478 6.08713 125.954 6.87148C124.973 8.35061 123.215 9.09127 121.749 10.1116C120.283 11.1319 118.993 12.5804 118.462 14.3086C118.173 15.2397 118.132 16.2301 118.344 17.1817C118.392 17.3966 118.453 17.6082 118.528 17.8153C118.736 18.3926 119.06 18.9213 119.481 19.3687C119.799 19.6994 120.164 19.9814 120.564 20.2055C121.066 20.4833 121.605 20.6921 122.163 20.826C122.144 20.8915 122.124 20.9614 122.102 21.0292C122.067 21.1406 122.036 21.2477 122.003 21.3678C121.931 21.6366 121.863 21.9097 121.806 22.1849C121.804 22.2045 121.804 22.2243 121.806 22.2439C121.537 23.4867 121.402 24.7545 121.403 26.0259C121.403 26.6272 121.433 27.2281 121.495 27.8262C122.372 36.6922 129.712 43.6858 138.782 44.1403C139.093 44.1556 139.407 44.1643 139.724 44.1643C139.869 44.1643 140.011 44.1643 140.162 44.1643C140.305 44.3522 140.445 44.5445 140.579 44.7324C140.713 44.9203 140.835 45.1125 140.951 45.3004L140.634 44.9727L140.316 44.6821C140.23 44.8 140.134 44.9104 140.029 45.012C139.822 44.9394 139.61 44.8795 139.396 44.8329C138.486 44.6319 137.101 44.5576 135.278 45.106C133.602 45.6063 131.553 46.6354 129.156 48.5908L117.474 55.5822L111.155 59.4144L108.878 64.9639C108.878 64.9639 107.166 71.5577 105.262 79.1129C105.188 79.1347 105.115 79.1565 105.043 79.1828C104.889 79.1653 104.734 79.1565 104.579 79.1565C103.474 79.154 102.411 79.5784 101.613 80.3406C100.816 81.1029 100.345 82.1437 100.301 83.2444C96.5147 87.8325 96.2999 92.4206 97.1896 94.5268C97.2701 94.7241 97.3715 94.9124 97.492 95.0883C98.0748 95.9273 99.1639 98.0903 100.268 100.395C100.24 100.585 100.222 100.745 100.214 100.865C100.212 100.904 100.212 100.944 100.214 100.983C100.214 100.983 100.871 110.882 98.6796 113.721C98.1997 114.339 98.2721 115.152 98.6796 116.052C100.148 119.29 105.952 123.613 105.952 123.613C105.952 123.613 112.914 123.576 116.793 123.155C116.782 123.544 116.773 123.93 116.764 124.308C116.677 128.127 116.676 131.328 116.676 131.328L116.532 135.333C116.532 135.333 115.217 143.773 114.56 146.1C114.146 147.559 114.623 161.072 115.04 171.007H183.631C184.437 165.13 183.3 147.273 183.3 147.273C183.3 147.273 182.219 142.656 182.18 138.632C182.178 138.628 182.177 138.623 182.177 138.618C182.177 138.613 182.178 138.608 182.18 138.604C182.18 138.252 182.18 137.909 182.193 137.572L182.691 137.555L183.585 137.524H183.666C183.666 137.524 183.688 137.441 183.738 137.306C183.856 136.968 184.018 136.647 184.218 136.351C184.599 135.789 185.195 135.239 186.091 135.202C186.587 135.182 187.354 134.782 188.219 134.192C188.225 134.194 188.231 134.194 188.237 134.192C190.566 132.621 193.645 129.722 194.392 129.246C195.42 128.59 200.341 124.221 200.341 124.221C200.341 124.221 201.075 123.294 201.858 122.178L201.886 122.139C202.859 120.74 203.893 119.069 203.639 118.542C203.201 117.599 203.933 115.342 203.933 115.342C206.218 111.171 203.797 105.643 202.767 104.26ZM160.394 37.0593C160.415 37.1245 160.429 37.192 160.434 37.2603C160.379 37.1882 160.324 37.1117 160.27 37.0418L160.217 36.9719L160.18 36.9194L160.263 36.8058C160.263 36.8058 160.263 36.8058 160.263 36.8211C160.321 36.892 160.365 36.9726 160.394 37.0593ZM159.658 35.1235C159.419 35.1716 159.231 35.2153 159.108 35.248C158.953 34.9728 158.804 34.6975 158.67 34.4178C159.021 34.621 159.352 34.8573 159.658 35.1235ZM159.246 35.4687C159.246 35.4644 159.246 35.4599 159.246 35.4556L159.264 35.4687C159.354 35.5277 159.441 35.5845 159.522 35.6435C159.595 35.6959 159.66 35.7462 159.726 35.7986C159.682 35.8751 159.634 35.9537 159.586 36.0171C159.509 35.8969 159.437 35.7811 159.367 35.661C159.323 35.6129 159.283 35.5474 159.246 35.4687ZM157.931 32.7726C158.355 32.731 158.781 32.731 159.205 32.7726C159.264 32.7726 159.316 32.7836 159.369 32.7923C159.488 32.8106 159.604 32.8406 159.717 32.8819C159.976 33.2431 160.136 33.6657 160.18 34.1076L160.061 34.125L159.945 34.1469C159.726 34.184 159.507 34.2212 159.336 34.2561L159.117 34.302C158.826 34.3654 158.657 34.4134 158.65 34.4156C158.622 34.3566 158.593 34.302 158.563 34.2452C158.514 34.1513 158.464 34.0551 158.42 33.9612C158.376 33.8672 158.319 33.7602 158.273 33.6619C158.243 33.6094 158.221 33.557 158.197 33.5089C158.197 33.4871 158.175 33.4696 158.166 33.4477C158.153 33.4246 158.142 33.4005 158.133 33.3756C157.999 33.1047 157.877 32.8338 157.758 32.5673C157.745 32.541 157.734 32.5126 157.723 32.4864L157.89 32.4755V32.5323L157.931 32.7726ZM105.65 168.306C105.633 165.053 105.396 161.533 104.738 158.23C104.458 156.825 104.169 155.42 103.875 154.039C103.801 153.694 103.728 153.353 103.656 153.012L102.981 153.102H102.92C101.079 144.448 99.1551 136.823 99.1551 136.823C99.1551 136.823 95.3336 122.274 95.7762 121.114C95.8332 120.963 95.7609 120.557 95.5987 119.96C94.674 116.653 90.813 107.537 89.4632 104.422C89.4632 104.409 89.4522 104.394 89.4478 104.383C89.2287 103.86 89.0709 103.509 89.0227 103.406L89.3405 98.7566L89.358 98.477L89.3996 97.8827L89.3821 97.8674L89.3996 97.5921C89.3996 97.5921 86.0645 94.8655 80.4154 92.8969C80.1963 92.8183 79.964 92.7418 79.7339 92.6675C80.0166 90.7864 80.3913 88.6627 80.88 86.5937C80.926 86.3861 80.9764 86.1851 81.029 85.982C81.075 85.7788 81.1276 85.5821 81.1802 85.3833C81.2634 85.06 81.3533 84.741 81.4453 84.4263C81.7499 84.3302 82.0501 84.2232 82.3459 84.1096L82.4599 84.0659C86.1041 82.652 89.1112 79.9694 90.9241 76.5148C92.7371 73.0602 93.2332 69.0676 92.3206 65.2763C91.8002 63.1261 90.8393 61.1065 89.4982 59.3445C89.3974 59.2091 89.2901 59.0736 89.1827 58.9403C89.0753 58.807 88.946 58.6585 88.8255 58.523C89.4588 57.0876 90.206 55.7221 90.2674 54.326C90.2783 54.1492 90.2783 53.9719 90.2674 53.7951V53.7732C90.1863 52.8752 89.7875 51.9664 88.8584 51.0116C87.502 49.6111 85.5715 48.901 83.641 48.5602C81.7105 48.2194 79.7427 48.2106 77.8012 47.9812C74.5823 47.5967 71.4466 46.607 68.2276 46.3033C64.2627 45.9372 60.2708 46.6152 56.6511 48.2696C54.2561 49.362 51.8304 51.2716 51.6857 53.8912C51.5674 56.0564 53.0794 58.1319 52.6981 60.2709C52.319 62.3727 50.1716 64.0266 50.36 66.1524C50.4323 66.9827 50.8596 67.7255 51.3943 68.3875C51.5784 68.606 51.7734 68.8245 51.975 69.043C52.7551 69.8667 53.614 70.6576 54.0501 71.6954C54.0676 71.7391 54.0852 71.7827 54.1005 71.8264C54.4708 72.8511 54.3043 74.1467 53.3883 74.7345C53.3934 74.7384 53.3972 74.7437 53.3993 74.7497C53.4125 74.7672 53.4256 74.7803 53.4366 74.7978C53.4379 74.7943 53.4379 74.7904 53.4366 74.7869C53.7613 75.1708 54.1991 75.4429 54.6878 75.5647L54.874 75.6215C54.7228 75.7854 54.5804 75.9558 54.4358 76.1349L54.3415 76.2595C54.1001 76.5832 53.8804 76.9226 53.6842 77.2754C53.5724 77.472 53.465 77.6687 53.3752 77.8653C53.0748 78.4647 52.8574 79.1019 52.7288 79.7596C52.4943 81.2059 52.8252 82.7134 52.4702 84.1292C52.0319 85.8771 50.6449 87.2186 49.8626 88.8419C48.3813 91.9007 49.2206 95.4903 49.5186 98.8681C49.924 103.456 49.2666 108.064 48.6114 112.622C48.2637 115.045 47.916 117.471 47.5683 119.899C46.6918 125.993 45.8153 132.088 44.9388 138.182C44.6189 140.415 44.2398 142.77 42.7476 144.494H42.7629C42.7629 144.494 42.7629 144.507 42.7476 144.511C43.1955 144.707 43.6719 144.829 44.1587 144.874C46.1068 145.068 48.1709 144.129 49.924 143.102C51.3122 142.302 52.627 141.382 53.8529 140.351C53.6732 141.007 53.4804 141.721 53.2744 142.49C53.2751 142.498 53.2751 142.505 53.2744 142.512C50.8005 151.907 46.8211 169.13 46.8211 169.13C46.8211 169.13 46.4596 169.879 45.9906 170.996H107.784C107.061 170.122 106.389 169.285 105.863 168.61L105.65 168.306ZM59.8964 81.4375C59.9117 81.4113 59.9227 81.3873 59.938 81.3632C59.938 81.4331 59.938 81.5009 59.938 81.5664C59.938 81.632 59.938 81.6909 59.938 81.7521C59.938 81.8133 59.938 81.8067 59.938 81.8373C59.938 81.9269 59.9183 82.0165 59.903 82.1061C59.903 82.1061 59.903 82.117 59.903 82.1257L60.1221 82.2066L60.3763 82.3114C61.878 82.9028 63.3988 83.4381 64.9385 83.9173C65.0963 83.9675 65.2562 84.0156 65.4162 84.0615L65.4491 84.3324C65.4885 84.6099 65.5258 84.8917 65.5608 85.1736C65.5608 85.1736 65.5608 85.1867 65.5608 85.1954C65.6594 85.9754 65.7559 86.7532 65.8413 87.5135C65.8413 87.5135 61.8181 85.9841 61.8685 88.3066C61.8662 88.3481 61.8662 88.3897 61.8685 88.4311C61.8641 88.4864 61.8641 88.5419 61.8685 88.5972C61.9058 90.4062 62.4733 91.479 62.5873 92.0296C62.5805 92.0524 62.5685 92.0733 62.5522 92.0907C62.455 92.3017 62.4215 92.5362 62.4558 92.7658C62.452 93.1567 62.4828 93.5471 62.5478 93.9325C62.4295 94.0046 62.3134 94.0767 62.1972 94.151C62.1096 94.2056 62.0263 94.2668 61.9409 94.328C61.4033 92.4688 60.7 90.6613 59.8394 88.9271C59.2368 87.6905 58.5597 86.4014 58.5663 85.0447C58.5663 84.9573 58.5663 84.8677 58.5773 84.7781C58.6017 84.3849 58.6768 83.9964 58.8008 83.6223C58.8512 83.4803 58.906 83.3405 58.9673 83.2029C59.1105 82.8758 59.2707 82.5564 59.4472 82.2459C59.5611 82.0405 59.6817 81.8373 59.7978 81.632C59.835 81.5708 59.8701 81.5074 59.9052 81.4462L59.8964 81.4375ZM158.284 33.6619C158.254 33.6094 158.232 33.557 158.208 33.5089C158.208 33.4871 158.186 33.4696 158.177 33.4477C158.129 33.4702 158.08 33.4899 158.03 33.5067C157.934 33.5439 157.835 33.5788 157.734 33.6072C157.633 33.6356 157.592 33.6509 157.515 33.6684L157.32 33.7187L157.338 33.758C157.419 33.7405 157.498 33.7252 157.579 33.7034L157.601 33.9743C157.693 33.9743 157.778 33.9612 157.861 33.9612H157.98C158.151 33.9612 158.3 33.9612 158.418 33.9612C158.372 33.8629 158.324 33.7602 158.284 33.6619Z" fill="url(#paint1_linear_204_4953)"/>
<path d="M110.405 65.7526L109.09 66.3316C109.09 66.3316 100.52 99.5279 100.52 102.211C100.52 104.894 118.692 119.823 118.692 119.823L121.528 100.74C121.528 100.74 117.457 56.9805 110.405 65.7526Z" fill="#E8F5FF"/>
<path d="M150.267 55.1933L142.674 51.2432C142.249 49.4355 141.494 47.7211 140.447 46.1853C139.337 44.586 137.86 43.0151 136.019 42.1958C131.367 40.1158 155.697 29.1982 155.697 29.1982C156.08 30.5098 156.531 31.8005 157.049 33.0654C158.302 36.1504 160.381 40.1399 163.061 41.276C167.617 43.2095 150.267 55.1933 150.267 55.1933Z" fill="#FFC1C7"/>
<path opacity="0.1" d="M157.049 33.0654C156.009 36.7108 153.847 39.9384 150.868 42.2926C147.89 44.6467 144.244 46.0084 140.447 46.1853C139.337 44.586 137.86 43.0151 136.019 42.1958C131.367 40.1158 155.697 29.1982 155.697 29.1982C156.08 30.5098 156.531 31.8005 157.049 33.0654Z" fill="black"/>
<path d="M157.732 27.5528C157.733 31.128 156.67 34.6232 154.679 37.5963C152.687 40.5693 149.856 42.8867 146.544 44.2554C143.231 45.624 139.586 45.9825 136.069 45.2854C132.552 44.5883 129.321 42.8669 126.786 40.339C124.25 37.8111 122.523 34.5902 121.824 31.0838C121.124 27.5773 121.483 23.9427 122.856 20.6397C124.228 17.3367 126.552 14.5136 129.533 12.5276C132.515 10.5415 136.02 9.48169 139.606 9.48213C141.989 9.47114 144.351 9.93103 146.555 10.8352C148.759 11.7395 150.761 13.0701 152.447 14.7503C154.132 16.4305 155.467 18.4269 156.374 20.6243C157.281 22.8218 157.743 25.1766 157.732 27.5528Z" fill="#FFC1C7"/>
<path d="M160.349 52.8729L155.405 64.3738L151.044 72.0076H137.086L133.015 61.5707L134.665 50.7471H145.325L152.208 50.3603L154.533 49.5869L156.032 50.4346L160.349 52.8729Z" fill="#575A89"/>
<path opacity="0.1" d="M158.646 37.5419C158.646 37.5419 161.729 38.1973 158.968 40.4543C156.207 42.7112 146.682 49.8883 146.682 49.8883C146.682 49.8883 150.028 52.8597 149.335 56.3401L160.421 50.1789L162.393 40.321C162.393 40.321 162.614 37.3584 158.646 37.5419Z" fill="black"/>
<path opacity="0.1" d="M148.862 49.8882L141.81 51.0483C141.81 51.0483 143.265 56.4121 142.538 57.9349C142.516 57.9822 142.498 58.0312 142.483 58.0813L139.606 65.8352L141.762 71.9244L149.226 61.7758L146.682 57.9349C146.682 57.9349 149.37 54.3824 150.97 53.1501C152.569 51.9179 148.862 49.8882 148.862 49.8882Z" fill="black"/>
<path d="M148.862 49.5889L141.81 50.7468C141.81 50.7468 143.265 56.1106 142.538 57.6334C142.516 57.6807 142.498 57.7297 142.483 57.7798L139.606 65.5337L141.762 71.6229L149.226 61.4678L146.682 57.6269C146.682 57.6269 149.37 54.0743 150.97 52.8421C152.569 51.6098 148.862 49.5889 148.862 49.5889Z" fill="#DCE6F2"/>
<path d="M158.942 36.9628C158.942 36.9628 162.025 37.6182 159.262 39.8752C156.499 42.1321 146.682 49.8882 146.682 49.8882C146.682 49.8882 150.317 52.2806 149.627 55.7589L160.712 49.5998L162.684 39.7419C162.684 39.7419 162.904 36.7793 158.942 36.9628Z" fill="#575A89"/>
<path opacity="0.1" d="M140.932 46.8691C140.932 46.8691 141.604 48.1232 144.573 50.3845C144.573 50.3845 139.63 53.0063 141.521 56.6921L133.959 54.7258L132.795 51.1012L140.932 46.8691Z" fill="black"/>
<path d="M140.64 46.5806C140.64 46.5806 141.313 47.8347 144.282 50.096C144.282 50.096 139.339 52.7046 141.23 56.4014L133.67 54.435L132.506 50.8126L140.64 46.5806Z" fill="#575A89"/>
<path opacity="0.1" d="M160.349 52.8728L155.405 64.3738L151.053 72.0076H137.086L133.015 61.5706L134.662 50.747H137.627C137.579 53.2727 138.504 56.2397 138.445 57.343C138.344 59.1564 141.157 68.9401 141.157 68.9401C141.157 68.9401 147.045 59.4448 149.37 58.5993C150.832 58.0684 153.928 53.6506 156.03 50.4346L160.349 52.8728Z" fill="black"/>
<path d="M179.822 113.395L179.32 114.024C179.32 114.024 182.956 132.217 181.95 136.349C181.779 137.093 181.681 137.853 181.659 138.617V138.649C181.481 142.853 182.754 148.308 182.754 148.308C182.754 148.308 183.771 164.389 183.192 171.002H115.127C114.728 161.223 114.299 148.553 114.689 147.148C115.346 144.83 116.661 136.421 116.661 136.421L116.806 132.436C116.806 132.436 116.806 128.584 116.924 124.293C116.975 122.364 117.049 120.338 117.156 118.542C117.294 116.283 117.487 114.38 117.752 113.445C117.916 112.736 118.01 112.013 118.033 111.287C118.033 111.219 118.033 111.149 118.046 111.079C118.046 110.861 118.068 110.625 118.077 110.382C118.077 110.314 118.077 110.247 118.077 110.164C118.118 108.757 118.103 107.087 118.057 105.357C118.057 105.263 118.057 105.167 118.057 105.071C118.02 103.773 117.965 102.449 117.904 101.19C117.713 97.2578 117.465 93.9325 117.465 93.9325L109.106 66.3162L111.358 60.7842L117.61 56.9652L129.169 50.0065C134.807 45.3856 138.519 45.9405 139.935 46.4474C140.072 46.4942 140.207 46.5489 140.338 46.6112C140.382 46.6331 140.417 46.6506 140.45 46.6702C140.495 46.6915 140.538 46.7163 140.579 46.7445C140.191 46.9305 139.854 47.207 139.597 47.5507C139.307 47.9418 139.101 48.388 138.99 48.8616C138.916 49.1552 138.864 49.4539 138.835 49.7552C138.806 50.072 138.795 50.3997 138.795 50.7296C138.811 51.4531 138.873 52.1749 138.981 52.8904C138.981 52.9036 138.981 52.921 138.981 52.9385C139.054 53.4498 139.144 53.9501 139.231 54.4198C139.23 54.4278 139.23 54.4359 139.231 54.4439C139.332 54.9923 139.433 55.4991 139.501 55.9361C139.514 56.0147 139.525 56.0868 139.536 56.1546C139.584 56.4433 139.607 56.7358 139.604 57.0285C139.628 57.7354 139.724 58.438 139.889 59.1259C139.946 59.4143 140.011 59.7224 140.084 60.0436C140.182 60.4805 140.29 60.9568 140.406 61.4419C140.469 61.7084 140.537 61.9837 140.607 62.2568C140.634 62.366 140.662 62.4753 140.688 62.5867L140.732 62.7593C141.199 64.6099 141.705 66.4517 142.016 67.5659C142.2 68.2214 142.317 68.6256 142.317 68.6256C142.317 68.6256 145.617 63.3055 148.25 60.2773C148.29 60.2337 148.325 60.1921 148.362 60.1528C148.623 59.8535 148.879 59.5804 149.125 59.3401C149.662 58.807 150.144 58.4268 150.532 58.287C150.614 58.2567 150.694 58.2195 150.77 58.1755C151.849 57.566 153.588 55.3527 155.217 53.0346C155.376 52.8162 155.532 52.578 155.69 52.353C156.051 51.833 156.402 51.3108 156.733 50.8105C156.987 50.4281 157.23 50.0567 157.46 49.7028C158.556 48.003 159.327 46.7358 159.327 46.7358L160.848 46.6681L161.113 46.6549H161.291L168.195 46.336C168.195 46.336 168.493 46.3862 168.984 46.4845C169.011 46.4845 169.037 46.4845 169.065 46.502C171.515 46.987 178.321 48.523 178.738 50.6532C179.246 53.2619 190.224 56.7423 190.224 56.7423C190.369 58.4902 193.058 59.6416 193.058 59.6416C193.058 59.6416 197.129 70.3691 196.04 74.5727C194.964 78.7239 198.84 88.9926 198.943 89.281L198.2 90.2161L179.822 113.395Z" fill="#E8F5FF"/>
<path opacity="0.1" d="M158.644 36.7794C158.644 36.7794 165.364 34.8786 166.892 38.7917C168.419 42.7047 171.835 58.5076 171.835 58.5076C171.835 58.5076 162.965 60.1746 160.64 58.5076C159.276 57.5182 157.588 57.0782 155.913 57.2753L150.898 60.6815L149.416 60.2445C149.416 60.2445 157.441 48.3503 159.185 44.3084C160.929 40.2664 161.519 38.4596 158.644 36.7794Z" fill="black"/>
<path d="M158.352 35.9054C158.352 35.9054 165.077 34.0046 166.611 37.9176C168.145 41.8307 171.555 57.6335 171.555 57.6335C171.555 57.6335 162.687 59.3006 160.359 57.6335C158.996 56.6441 157.309 56.204 155.635 56.4013L150.615 59.8074L149.134 59.3705C149.134 59.3705 157.158 47.4763 158.902 43.4343C160.646 39.3924 161.227 37.5899 158.352 35.9054Z" fill="#E8F5FF"/>
<path opacity="0.1" d="M113.241 98.9487C113.241 98.9487 118.257 100.181 119.203 103.008C120.15 105.835 115.496 105.907 115.496 105.907C115.496 105.907 112.66 100.906 113.241 98.9487Z" fill="black"/>
<path opacity="0.1" d="M131.923 119.823C131.923 119.823 119.639 144.902 122.475 147.295C125.31 149.687 131.923 119.823 131.923 119.823Z" fill="black"/>
<path opacity="0.1" d="M148.862 101.341C148.862 101.341 158.677 125.702 156.713 129.464C154.75 133.227 160.929 129.464 160.929 129.464L148.862 101.341Z" fill="black"/>
<path d="M162.529 125.405C162.529 125.405 129.379 127 139.049 137.292C148.719 147.585 168.563 137.729 168.563 137.729L162.529 125.405Z" fill="#FFC1C7"/>
<path opacity="0.1" d="M157.732 27.5531C157.735 29.9237 157.268 32.2714 156.358 34.4615C156.054 34.4965 155.749 34.5183 155.456 34.5314C155.017 33.5723 155.252 32.4646 155.26 31.4093C155.269 30.354 154.879 29.113 153.86 28.829C151.829 28.2588 150.427 32.0451 148.424 31.3612C146.89 30.8412 147.291 28.521 146.408 27.1817C145.709 26.122 144.309 25.8227 143.219 25.1585C140.903 23.7405 140.973 21.4727 139.898 19.3272C138.771 17.079 136.391 17.7432 134.325 19.0694C132.756 20.0788 131.402 21.4312 129.723 22.2352C128.271 22.9343 126.638 23.1878 125.028 23.2249C124.036 23.2632 123.044 23.1587 122.083 22.9147C123.214 18.6748 125.853 14.9898 129.508 12.547C133.163 10.1041 137.584 9.07012 141.948 9.63786C146.311 10.2056 150.318 12.3363 153.222 15.6326C156.126 18.9289 157.728 23.1658 157.73 27.5531H157.732Z" fill="black"/>
<path d="M134.332 18.4903C132.761 19.4997 131.409 20.8499 129.73 21.6583C128.277 22.3553 126.645 22.6087 125.034 22.6459C123.062 22.6896 120.939 22.3444 119.591 20.9242C118.353 19.6133 118.057 17.5967 118.581 15.8773C119.105 14.1578 120.36 12.7311 121.835 11.6977C123.31 10.6643 125.021 9.94983 125.998 8.47071C126.515 7.68854 126.765 6.76654 127.195 5.93412C128.569 3.27081 131.658 1.82882 134.645 1.64967C137.632 1.47051 140.592 2.35755 143.436 3.31888C146.281 4.2802 149.147 5.33766 152.149 5.53648C153.486 5.6195 154.875 5.53648 156.115 6.04117C157.783 6.71629 158.876 8.33088 159.621 9.97387C160.456 11.8266 160.975 13.8498 160.888 15.8729C160.704 20.1923 157.842 24.4309 159.1 28.5689C159.433 29.6723 160.057 30.804 159.724 31.9074C159.238 33.5176 157.154 33.8846 155.469 33.9611C155.03 33.002 155.265 31.8921 155.274 30.839C155.282 29.7859 154.892 28.5427 153.876 28.2587C151.842 27.6928 150.44 31.4726 148.441 30.7909C146.918 30.2687 147.313 27.9506 146.427 26.6113C145.728 25.5495 144.326 25.2524 143.239 24.5882C140.923 23.1702 140.993 20.9024 139.917 18.7569C138.782 16.4978 136.4 17.162 134.332 18.4903Z" fill="#99607E"/>
<path d="M102.188 101.629L100.516 102.21C100.516 102.21 101.173 112.068 98.982 114.896C96.7907 117.723 106.178 124.751 106.178 124.751C106.178 124.751 119.045 124.679 119.409 123.659C119.773 122.639 118.752 105.394 118.752 105.394C118.752 105.394 111.845 102.711 112.425 98.4351C112.425 98.4351 110.317 108.509 107.193 108.075C104.068 107.64 100.52 105.038 102.188 101.629Z" fill="#E8F5FF"/>
<path opacity="0.1" d="M107.765 111.125C110.201 111.125 112.176 109.324 112.176 107.102C112.176 104.881 110.201 103.08 107.765 103.08C105.329 103.08 103.354 104.881 103.354 107.102C103.354 109.324 105.329 111.125 107.765 111.125Z" fill="black"/>
<path d="M112.588 101.92C112.588 101.92 111.711 75.2476 104.081 81.1903C96.4513 87.1331 96.3768 94.2403 97.8296 96.3399C99.2824 98.4395 103.941 108.951 103.941 108.951C104.67 109.372 105.488 109.615 106.329 109.66C107.17 109.705 108.01 109.55 108.78 109.209C109.549 108.868 110.227 108.35 110.757 107.698C111.287 107.045 111.655 106.277 111.83 105.455L112.588 101.92Z" fill="#FFC1C7"/>
<path opacity="0.1" d="M160.184 34.3586C160.149 34.2414 160.08 34.1368 159.987 34.0571C159.61 33.7141 158.799 33.5939 157.577 33.6988L157.627 34.2756C159.257 34.1358 159.579 34.4591 159.621 34.5137V34.5684L159.671 34.6405C159.875 34.9128 160.019 35.2246 160.094 35.5556C160.17 35.8867 160.175 36.2299 160.11 36.5631C159.753 38.3437 157.559 39.7617 157.537 39.777L157.485 39.8076L157.452 39.8578C156.505 41.2583 151.152 45.2107 149.752 46.2332L149.629 46.0933C149.002 46.6352 143.493 51.444 143.195 53.2858C143.003 54.4416 141.697 54.8894 141.223 55.014C140.724 54.636 139.102 53.3491 138.258 51.9072C137.467 50.5504 140.651 47.9024 140.932 46.8689L140.494 46.4211C140.447 46.5871 136.359 50.3974 137.496 52.3441C138.407 53.9063 140.073 55.2434 140.656 55.6847C140.469 57.3714 139.31 67.2752 137.529 69.6218C135.316 72.5385 133.455 87.238 133.661 92.3702C133.843 96.9299 132.649 105.543 128.661 109.241C127.97 109.91 127.137 110.414 126.224 110.717C125.311 111.02 124.341 111.113 123.386 110.989H123.338H123.29C123.233 110.989 117.448 111.579 112.588 107.494C108.611 104.157 106.358 98.7128 105.889 91.3062H105.793L105.753 89.1498C106.832 88.982 107.803 88.4039 108.463 87.5372C109.122 86.6704 109.42 85.5824 109.292 84.5017C109.164 83.4209 108.621 82.4317 107.777 81.7418C106.933 81.0519 105.854 80.715 104.766 80.8019C103.678 80.8888 102.666 81.3928 101.943 82.208C101.22 83.0231 100.842 84.0859 100.888 85.1731C100.935 86.2603 101.402 87.2873 102.192 88.0382C102.982 88.7891 104.033 89.2056 105.124 89.2H105.172L105.212 91.3433L105.019 91.3564C105.501 99.0033 107.868 104.66 112.031 108.153C115.196 110.768 119.238 112.087 123.34 111.844C123.631 111.875 123.924 111.891 124.217 111.892C126.097 111.901 127.907 111.176 129.257 109.871C133.457 105.971 134.735 97.0414 134.535 92.3265C134.316 86.8885 136.269 72.7177 138.228 70.1374C140.147 67.6052 141.311 57.7385 141.515 55.8267C142.209 55.6323 143.78 55.0184 144.048 53.4234C144.241 52.2698 147.92 48.7151 150.183 46.7466L150.115 46.6679C151.334 45.7809 155.122 42.9843 157 41.1884C157.583 40.6313 158.162 40.0741 158.766 39.5432C159.494 38.9009 160.419 37.8806 160.662 36.6745C160.745 36.2764 160.745 35.8656 160.663 35.4674C160.581 35.0691 160.418 34.6918 160.184 34.3586Z" fill="black"/>
<path d="M140.581 55.547C140.489 55.4836 138.307 53.9258 137.213 52.0513C136.078 50.1046 140.167 46.2964 140.211 46.1304L140.649 46.5783C140.371 47.6095 137.187 50.2597 137.978 51.6143C138.975 53.325 141.074 54.8216 141.096 54.8369L140.581 55.547Z" fill="#353146"/>
<path d="M149.467 46.6571L149.125 46.1873C149.195 46.1371 156.078 41.1731 157.162 39.5673L157.197 39.5192L157.248 39.4865C157.27 39.4712 159.463 38.0554 159.82 36.2726C159.886 35.9397 159.881 35.5968 159.806 35.2659C159.73 34.9351 159.586 34.6238 159.382 34.3521L159.332 34.2778V34.2254C159.288 34.1686 158.966 33.8474 157.335 33.9872L157.285 33.4083C158.51 33.3034 159.319 33.4236 159.695 33.7666C159.789 33.8471 159.858 33.9523 159.895 34.0703C160.132 34.4025 160.298 34.7795 160.383 35.1782C160.468 35.5769 160.471 35.9887 160.39 36.3884C160.147 37.5966 159.224 38.6169 158.495 39.257C157.892 39.788 157.311 40.3495 156.731 40.9022C154.528 43.0062 149.708 46.4845 149.467 46.6571Z" fill="#E8F5FF"/>
<path d="M105.47 88.3893L104.89 88.3999L104.954 91.9191L105.535 91.9085L105.47 88.3893Z" fill="#E8F5FF"/>
<path d="M104.841 88.9226C107.183 88.9226 109.082 87.0298 109.082 84.6949C109.082 82.3601 107.183 80.4673 104.841 80.4673C102.5 80.4673 100.601 82.3601 100.601 84.6949C100.601 87.0298 102.5 88.9226 104.841 88.9226Z" fill="#24CB77"/>
<path d="M104.841 88.2061C106.786 88.2061 108.363 86.6342 108.363 84.6951C108.363 82.756 106.786 81.1841 104.841 81.1841C102.897 81.1841 101.32 82.756 101.32 84.6951C101.32 86.6342 102.897 88.2061 104.841 88.2061Z" fill="#E8F5FF"/>
<path d="M123.941 111.61C123.648 111.61 123.355 111.595 123.064 111.564C118.962 111.805 114.921 110.486 111.755 107.874C107.592 104.378 105.229 98.7283 104.743 91.0748L105.619 91.0202C106.088 98.4268 108.341 103.874 112.32 107.208C117.181 111.282 122.963 110.703 123.02 110.703H123.068H123.117C124.071 110.826 125.042 110.733 125.955 110.43C126.869 110.127 127.702 109.623 128.393 108.955C132.379 105.257 133.573 96.644 133.392 92.0842C133.172 86.9477 135.033 72.2482 137.248 69.3336C139.187 66.7795 140.39 55.2677 140.404 55.1519L140.436 54.8241L140.761 54.7673C140.78 54.7673 142.674 54.409 142.91 52.9976C143.217 51.158 148.717 46.3492 149.342 45.8052L149.914 46.4606C147.641 48.427 143.962 51.9839 143.778 53.1396C143.511 54.7389 141.94 55.3507 141.247 55.543C141.028 57.4569 139.873 67.3214 137.96 69.8536C136.001 72.4339 134.049 86.6047 134.268 92.0427C134.457 96.7576 133.192 105.689 128.991 109.587C127.639 110.895 125.825 111.622 123.941 111.61Z" fill="#353146"/>
<g opacity="0.1">
<path d="M159.599 22.3879C159.958 21.0639 160.392 19.7311 160.695 18.3896C160.333 19.7377 159.897 21.0639 159.599 22.3879Z" fill="black"/>
<path d="M155.933 32.7919C155.495 31.8327 155.729 30.7228 155.738 29.6697C155.747 28.6166 155.357 27.3844 154.34 27.0894C152.307 26.5236 150.904 30.3055 148.906 29.6217C147.372 29.0995 147.777 26.7814 146.892 25.4421C146.193 24.3803 144.793 24.0831 143.706 23.4189C141.388 22.001 141.458 19.7331 140.384 17.5876C139.255 15.3373 136.878 16.0014 134.809 17.3298C133.238 18.3392 131.886 19.6916 130.208 20.4978C128.755 21.1948 127.122 21.4482 125.512 21.4854C123.551 21.5312 121.416 21.1839 120.069 19.7637C119.03 18.6713 118.655 17.0698 118.87 15.5688C118.833 15.6715 118.8 15.7742 118.767 15.8769C118.241 17.5964 118.548 19.6173 119.777 20.9239C121.125 22.344 123.259 22.6892 125.22 22.6455C126.833 22.6084 128.463 22.3549 129.918 21.658C131.601 20.8496 132.953 19.4994 134.52 18.49C136.589 17.1616 138.968 16.4974 140.095 18.7478C141.168 20.8933 141.101 23.1611 143.417 24.5791C144.512 25.2345 145.904 25.5404 146.605 26.6022C147.481 27.9459 147.094 30.2596 148.619 30.7818C150.615 31.4635 152.017 27.6837 154.051 28.2496C155.068 28.5336 155.46 29.779 155.449 30.8299C155.438 31.8808 155.21 32.9929 155.644 33.952C157.329 33.8755 159.413 33.515 159.902 31.8983C159.969 31.6662 160 31.4253 159.994 31.1838C159.281 32.4095 157.45 32.7241 155.933 32.7919Z" fill="black"/>
</g>
<path opacity="0.1" d="M195.536 86.6262L198.08 89.3092C198.08 89.3092 200.116 104.094 201.132 105.477C202.149 106.86 204.551 112.361 202.296 116.493C202.296 116.493 201.568 118.741 202.004 119.683C202.441 120.624 198.735 125.337 198.735 125.337C198.735 125.337 193.864 129.685 192.845 130.338C191.826 130.991 186.449 136.209 184.632 136.281C182.816 136.353 182.222 138.601 182.222 138.601L171.971 138.964C171.971 138.964 166.309 138.669 165.077 139.466C165.077 139.466 165.735 130.841 159.408 125.186L167.477 122.287C167.477 122.287 170.531 120.976 171.476 119.606C172.07 118.766 172.913 118.133 173.886 117.795C173.886 117.795 176.139 116.2 176.211 115.331C176.283 114.461 178.965 113.395 178.965 113.395L177.447 100.472L178.247 79.0165C178.247 79.0165 180.791 61.0397 186.17 62.0557C191.55 63.0716 195.536 86.6262 195.536 86.6262Z" fill="black"/>
<path d="M196.412 86.6262L198.956 89.3092C198.956 89.3092 200.992 104.094 202.009 105.477C203.026 106.86 205.427 112.361 203.172 116.493C203.172 116.493 202.447 118.741 202.883 119.683C203.319 120.624 199.612 125.337 199.612 125.337C199.612 125.337 194.74 129.685 193.721 130.338C192.702 130.991 187.325 136.209 185.509 136.281C183.692 136.353 183.098 138.601 183.098 138.601L172.847 138.964C172.847 138.964 167.181 138.669 165.954 139.466C165.954 139.466 166.611 130.841 160.285 125.186L168.353 122.287C168.353 122.287 171.408 120.976 172.352 119.606C172.946 118.766 173.789 118.133 174.763 117.795C174.763 117.795 177.015 116.2 177.088 115.331C177.16 114.461 179.842 113.395 179.842 113.395L178.323 100.472L179.123 79.0165C179.123 79.0165 181.667 61.0397 187.047 62.0557C192.426 63.0716 196.412 86.6262 196.412 86.6262Z" fill="#E8F5FF"/>
<path opacity="0.1" d="M186.955 108.3C186.955 108.3 194.442 106.333 196.406 108.737C198.369 111.14 186.955 108.3 186.955 108.3Z" fill="black"/>
<path opacity="0.1" d="M185.211 111.597C187.755 113.373 195.606 113.445 195.606 113.445L185.211 111.597Z" fill="black"/>
<path opacity="0.1" d="M189.063 120.476C189.282 120.548 194.46 126.058 196.634 124.391C198.807 122.724 189.063 120.476 189.063 120.476Z" fill="black"/>
<path opacity="0.1" d="M119.328 74.2319C119.328 74.2319 120.849 84.671 120.099 88.9227C119.35 93.1744 122.084 98.442 122.084 98.442L119.328 74.2319Z" fill="black"/>
<path d="M85.6613 78.4768C83.9083 79.8467 82.6286 83.0889 81.7017 86.6524C80.0846 92.8682 79.5565 100.076 79.5565 100.076C79.5565 100.076 65.5981 96.8861 66.6149 95.4376C67.2547 94.5265 66.3957 87.6618 65.6792 82.6847C65.2519 79.744 64.8706 77.4608 64.8706 77.4608C64.8706 77.4608 90.4602 74.7058 85.6613 78.4768Z" fill="#FFCCD0"/>
<path opacity="0.1" d="M85.6613 78.1863C83.9083 79.5584 82.6286 82.7985 81.7017 86.3619C78.9207 87.2039 75.9629 87.2798 73.1421 86.5817C70.3213 85.8836 67.7425 84.4374 65.6792 82.3964C65.2519 79.4535 64.8706 77.1703 64.8706 77.1703C64.8706 77.1703 90.4602 74.4174 85.6613 78.1863Z" fill="black"/>
<path d="M93.1643 70.3779C93.1657 74.178 91.8188 77.8561 89.3619 80.7612C86.905 83.6664 83.4965 85.6112 79.7397 86.2516C75.9829 86.892 72.12 86.1865 68.8347 84.2602C65.5493 82.3338 63.0534 79.3107 61.7887 75.726C60.5239 72.1412 60.5718 68.2259 61.924 64.6729C63.2761 61.12 65.8453 58.1586 69.1768 56.3127C72.5083 54.4669 76.3873 53.8557 80.1273 54.5873C83.8673 55.3189 87.2272 57.3461 89.6122 60.3102C91.9106 63.1654 93.1636 66.7168 93.1643 70.3779Z" fill="#FFCCD0"/>
<path opacity="0.1" d="M105.891 171.002H101.29L100.902 162.899L100.496 154.511C100.496 154.511 101.542 154.356 103.207 154.124L103.88 154.035H103.934C104.298 155.737 104.658 157.485 105.004 159.23C105.58 162.329 105.88 165.473 105.9 168.625C105.9 168.843 105.9 169.062 105.9 169.267C105.913 169.851 105.9 170.434 105.891 171.002Z" fill="black"/>
<path d="M105.008 171.002H47.2988C47.5486 170.436 47.7152 170.093 47.7152 170.093C47.7152 170.093 52.3322 149.953 54.679 141.433C54.6797 141.425 54.6797 141.418 54.679 141.411C54.9722 140.253 55.3262 139.112 55.7396 137.991C55.7663 137.915 55.8008 137.842 55.8426 137.773C57.0039 135.89 58.4589 133.86 56.4233 130.961C54.3876 128.061 55.1085 115.304 55.1085 115.304C55.1085 115.304 57.5802 104.43 60.1966 98.6318C60.5937 97.7336 61.1572 96.9182 61.8576 96.2284C62.0853 96.0063 62.3284 95.8004 62.5851 95.6123C62.7802 95.4661 62.9836 95.3311 63.1943 95.2081L63.2359 95.1819C64.335 94.5606 65.5555 94.1828 66.8142 94.0742C67.7084 93.981 68.611 94.006 69.4985 94.1485C73.7408 94.769 77.1373 95.8068 79.8369 96.9888C87.1536 100.194 89.3689 104.489 89.4128 104.579L89.4303 104.616C89.7239 105.3 94.0188 115.298 95.5658 119.962C95.9668 121.177 96.186 122.031 96.0983 122.265C95.6601 123.423 99.4422 137.919 99.4422 137.919C99.4422 137.919 101.195 144.911 102.948 153.106C103.025 153.447 103.097 153.788 103.167 154.133C103.481 155.621 103.792 157.137 104.092 158.651C104.674 161.772 104.974 164.938 104.988 168.111C105.02 169.1 105.027 170.064 105.008 171.002Z" fill="#FF748E"/>
<path opacity="0.1" d="M66.4704 89.0888C66.4704 89.0888 62.4888 87.5594 62.5371 89.8797C62.5853 92.2 63.5078 93.3099 63.2163 93.6485C62.9249 93.9872 63.361 96.0169 63.361 96.0169C63.361 96.0169 68.7405 96.0169 71.2123 97.1268C73.684 98.2366 82.7953 100.461 83.9589 101.138C85.1224 101.815 89.437 104.852 89.437 104.852L89.8249 99.1018C89.8249 99.1018 85.3657 95.4291 78.049 93.5458C70.7324 91.6625 66.4704 89.0888 66.4704 89.0888Z" fill="black"/>
<path d="M66.4704 88.7982C66.4704 88.7982 62.4888 87.2689 62.5371 89.5892C62.5853 91.9094 63.5078 93.0193 63.2163 93.358C62.9249 93.6966 63.361 95.7263 63.361 95.7263C63.361 95.7263 68.7405 95.7263 71.2123 96.8384C73.684 97.9505 82.7953 100.172 83.9589 100.848C85.1224 101.523 89.437 104.562 89.437 104.562L89.8293 98.8288C89.8293 98.8288 85.3701 95.1561 78.0534 93.2728C70.7368 91.3895 66.4704 88.7982 66.4704 88.7982Z" fill="#FF748E"/>
<path opacity="0.1" d="M78.4893 102.637C78.4893 102.637 86.0973 110.849 85.7095 113.124C85.3216 115.398 78.4893 102.637 78.4893 102.637Z" fill="black"/>
<path opacity="0.1" d="M66.1307 132.305C66.1307 132.305 60.5539 137.428 58.9105 137.719C57.267 138.009 60.1704 138.975 62.0593 138.204C63.9482 137.432 67.9757 135.403 67.9757 135.403L66.1307 132.305Z" fill="black"/>
<path d="M107.274 171.002H94.2687C92.45 169.429 90.7298 167.972 89.6342 167.096C87.8812 165.693 86.6168 163.628 85.8105 161.968C85.6286 161.59 85.4708 161.236 85.3371 160.915C85.0978 160.361 84.8871 159.796 84.7061 159.221L94.3367 153.519C94.8689 153.97 95.369 154.458 95.8333 154.979L95.9494 155.112C96.4841 155.741 96.9552 156.455 96.9969 157.041C97.0451 157.723 98.9471 160.36 100.891 162.892C102.863 165.468 104.883 167.93 105.017 168.096C105.017 168.096 105.35 168.548 105.893 169.243C106.277 169.746 106.75 170.349 107.274 171.002Z" fill="#FFCCD0"/>
<path opacity="0.1" d="M89.6122 60.31C89.1499 61.35 88.7357 62.4293 88.6743 63.5872C88.5012 66.93 88.7817 74.4043 85.0697 76.0823C83.2312 76.9081 81.2635 75.0947 79.2475 75.051C77.7969 75.0204 76.4668 75.9381 75.5815 77.0851C74.6963 78.2321 74.1463 79.5933 73.5042 80.8911C72.9198 82.069 72.2466 83.2011 71.4904 84.2775C71.2644 84.607 71.0155 84.9202 70.7454 85.2148C68.482 84.2626 66.4664 82.8077 64.8523 80.9611C63.2382 79.1145 62.0682 76.9249 61.4314 74.5591C60.7945 72.1934 60.7077 69.7139 61.1776 67.3096C61.6474 64.9054 62.6615 62.6397 64.1425 60.6854C65.6235 58.7311 67.5324 57.1396 69.7238 56.0323C71.9151 54.925 74.331 54.331 76.7875 54.2956C79.2439 54.2603 81.676 54.7844 83.8985 55.8282C86.121 56.872 88.0752 58.4078 89.6122 60.3187V60.31Z" fill="black"/>
<path d="M88.383 62.9973C88.2077 66.34 88.4904 73.8143 84.7762 75.4901C82.9377 76.316 80.9699 74.5047 78.954 74.461C77.5034 74.4283 76.1754 75.3481 75.288 76.4929C74.4005 77.6378 73.8549 79.0011 73.2107 80.3011C72.626 81.479 71.9529 82.611 71.1969 83.6876C70.7455 84.3256 70.2459 84.9657 69.5512 85.324C68.3417 85.9533 66.8757 85.5993 65.5785 85.1951C63.8956 84.6664 62.2375 84.0707 60.6043 83.4079C60.6418 83.1621 60.6608 82.9138 60.6613 82.6651C60.6131 82.7568 60.5605 82.8421 60.5079 82.9338L60.4049 83.113C60.2186 83.4407 60.0368 83.7684 59.8702 84.1049C59.8067 84.2338 59.7453 84.3671 59.6905 84.5003C59.4702 84.9963 59.3318 85.5246 59.2808 86.0647C59.169 87.522 59.89 88.9049 60.5298 90.2158C62.9906 95.2868 64.5113 101.216 62.6597 106.537C61.8577 108.85 60.4685 110.906 59.4539 113.141C57.6804 117.1 57.1583 121.503 57.9573 125.765C58.4634 128.413 59.478 131.035 59.2282 133.72C58.7899 138.341 54.7931 141.78 50.7896 144.144C48.6268 145.416 45.9798 146.547 43.6833 145.542C45.1471 143.838 45.524 141.481 45.8396 139.257C46.7029 133.19 47.5685 127.121 48.4362 121.048C48.7824 118.632 49.1279 116.215 49.4727 113.799C50.1169 109.259 50.7699 104.668 50.3667 100.1C50.0731 96.7332 49.2448 93.1588 50.7086 90.111C51.4821 88.4964 52.8604 87.1593 53.2899 85.4202C53.6427 84.0066 53.314 82.5034 53.5462 81.0636C53.6734 80.4085 53.8886 79.7736 54.1861 79.1759C54.5649 78.3649 55.0594 77.6128 55.6542 76.943C55.067 76.7726 54.5192 76.5388 54.1861 76.0494C55.1283 75.4377 55.2708 74.059 54.8435 73.0234C54.4162 71.9878 53.5616 71.1991 52.7924 70.382C52.0233 69.5648 51.2827 68.6123 51.1862 67.498C51 65.3765 53.1255 63.7335 53.5002 61.6405C53.8793 59.5103 52.3805 57.439 52.501 55.2826C52.6412 52.6761 55.0429 50.7819 57.4138 49.6829C60.9917 48.0315 64.944 47.3531 68.8698 47.7166C72.0646 48.0181 75.1565 49.0034 78.3426 49.3858C80.2643 49.6043 82.2124 49.6261 84.121 49.9626C86.0296 50.299 87.9425 51.0091 89.2858 52.4052C92.8269 56.0866 88.5846 59.117 88.383 62.9973Z" fill="#FFE0D0"/>
<path opacity="0.1" d="M85.4204 161.97C84.3029 161.487 82.2694 161.776 78.7787 160.716C75.288 159.656 74.6153 154.867 74.6153 154.867V154.852C74.5736 154.743 74.2493 154.03 72.0537 151.535C69.628 148.78 64.3843 134.865 64.3843 134.865C64.3843 134.865 59.7344 129.886 59.8812 128.051C60.028 126.215 59.0551 121.332 59.1515 115.87C59.2479 110.408 69.6192 106.786 69.6192 106.786C89.5882 103.257 84.8857 126.211 84.3533 127.95C83.8208 129.689 86.584 134.387 86.584 134.387C86.1939 136.432 88.1836 139.597 88.1836 139.597C88.1836 139.597 88.6657 142.398 88.7643 143.462C88.7697 143.512 88.7808 143.56 88.7972 143.607C89.1171 144.609 91.7247 145.518 92.7853 146.071C93.9006 146.652 97.4877 151.725 97.4877 151.725C98.2612 155.451 86.5336 162.459 85.4204 161.97Z" fill="black"/>
<path d="M86.001 161.096C84.8857 160.611 82.85 160.902 79.3615 159.84C75.873 158.778 75.1981 153.993 75.1981 153.993V153.978C75.1586 153.867 74.8321 153.157 72.6365 150.662C70.2107 147.907 64.967 133.989 64.967 133.989C64.967 133.989 60.3172 129.012 60.4618 127.177C60.6064 125.342 59.6379 120.459 59.7343 115.001C59.8307 109.543 70.1954 105.923 70.1954 105.923C90.1644 102.394 85.462 125.348 84.9295 127.087C84.397 128.826 87.1602 133.524 87.1602 133.524C86.7701 135.569 88.7598 138.735 88.7598 138.735C88.7598 138.735 89.2419 141.536 89.3427 142.6C89.3464 142.649 89.3567 142.697 89.3734 142.744C89.6933 143.747 92.3009 144.656 93.3637 145.208C94.4768 145.787 98.0661 150.863 98.0661 150.863C98.844 154.581 87.1164 161.59 86.001 161.096Z" fill="#FF748E"/>
<path opacity="0.1" d="M70.5898 117.906C70.5898 117.906 79.3133 127.083 81.59 127.083C83.8667 127.083 70.5898 117.906 70.5898 117.906Z" fill="black"/>
<path d="M86.0009 161.096C84.8856 160.611 82.8499 160.902 79.3614 159.84C75.8729 158.778 75.198 153.993 75.198 153.993V153.978C77.5098 152.449 83.3649 148.129 85.6723 146.55C87.296 145.442 88.6217 143.814 89.3974 142.735C89.7173 143.738 92.3249 144.647 93.3877 145.199C94.5009 145.778 98.0902 150.854 98.0902 150.854C98.844 154.581 87.1163 161.59 86.0009 161.096Z" fill="#FF748E"/>
<g opacity="0.1">
<path d="M54.1992 76.0738C54.2102 76.0913 54.2255 76.1066 54.2387 76.1241C54.3044 76.0411 54.3723 75.958 54.4424 75.8794C54.3678 75.9518 54.2863 76.0169 54.1992 76.0738Z" fill="black"/>
<path d="M59.283 86.0888C59.375 84.8762 60.0258 83.8078 60.635 82.7416C60.2362 82.5887 59.8374 82.4336 59.4429 82.2719C59.4805 82.0268 59.4995 81.7792 59.4999 81.5312C58.8842 82.6237 58.2136 83.6986 58.1194 84.9287C58.0077 86.3881 58.7286 87.7689 59.3684 89.0798C61.8314 94.1486 63.35 100.078 61.4983 105.401C60.6941 107.712 59.3071 109.77 58.2925 112.005C56.5196 115.963 55.9983 120.366 56.7981 124.627C57.2999 127.277 58.3166 129.897 58.0668 132.582C57.6286 137.203 53.6339 140.642 49.6283 143.004C47.9914 143.969 46.0784 144.854 44.2487 144.791C44.0793 145.063 43.8904 145.322 43.6833 145.566C45.982 146.578 48.6268 145.44 50.7896 144.164C54.7975 141.804 58.8009 138.374 59.2391 133.744C59.489 131.059 58.4722 128.44 57.9682 125.789C57.1682 121.529 57.688 117.126 59.4583 113.168C60.4663 110.935 61.8687 108.874 62.6641 106.563C64.5157 101.241 62.995 95.311 60.5342 90.2422C59.8965 88.9225 59.1712 87.5483 59.283 86.0888Z" fill="black"/>
<path d="M89.2813 52.4316C89.0658 52.2111 88.8344 52.0066 88.5889 51.8198C91.2447 55.2544 87.41 58.1733 87.2194 61.87C87.0484 65.2128 87.3289 72.6893 83.6147 74.3629C81.7785 75.1909 79.8085 73.3775 77.7947 73.3338C76.3419 73.3032 75.014 74.2231 74.1266 75.3679C73.2391 76.5128 72.6935 77.8761 72.0514 79.1739C71.4657 80.3516 70.7918 81.4836 70.0355 82.5604C69.5972 83.2005 69.0844 83.8385 68.3876 84.199C67.1824 84.826 65.7165 84.4743 64.4171 84.0679C63.1534 83.6717 61.9015 83.2348 60.6612 82.757C60.6587 82.9846 60.6396 83.2117 60.6042 83.4365C62.2389 84.1007 63.8977 84.6964 65.5806 85.2237C66.8778 85.6301 68.3438 85.9818 69.5512 85.3548C70.2458 84.9943 70.7498 84.3541 71.199 83.714C71.9559 82.6388 72.6291 81.5073 73.2128 80.3297C73.857 79.0319 74.4005 77.6663 75.2901 76.5215C76.1798 75.3766 77.5055 74.459 78.9561 74.4896C80.9721 74.5333 82.942 76.3467 84.7783 75.5187C88.4925 73.8451 88.2098 66.3686 88.3829 63.0258C88.5845 59.139 92.8268 56.1108 89.2813 52.4316Z" fill="black"/>
</g>
<path opacity="0.1" d="M60.407 83.1154C60.2208 83.4431 60.0389 83.7708 59.8724 84.1073C59.8088 84.2362 59.7475 84.3695 59.6927 84.5028C58.5445 83.3492 55.7484 80.6072 54.1882 79.7573C54.5676 78.9466 55.062 78.1946 55.6564 77.5244C55.6564 77.5244 59.375 79.4842 60.407 83.1154Z" fill="black"/>
<path d="M60.51 82.9361C59.6489 79.0493 55.6564 76.9453 55.6564 76.9453C55.0615 77.6151 54.567 78.3672 54.1882 79.1782C55.8339 80.0762 58.8666 83.0869 59.8724 84.1072L60.51 82.9361Z" fill="#FF748E"/>
</g>
<defs>
<linearGradient id="paint0_linear_204_4953" x1="160.469" y1="20.8453" x2="160.469" y2="16.8296" gradientUnits="userSpaceOnUse">
<stop stop-color="#808080" stop-opacity="0.25"/>
<stop offset="0.54" stop-color="#808080" stop-opacity="0.12"/>
<stop offset="1" stop-color="#808080" stop-opacity="0.1"/>
</linearGradient>
<linearGradient id="paint1_linear_204_4953" x1="123.831" y1="171.002" x2="123.831" y2="0.000197131" gradientUnits="userSpaceOnUse">
<stop stop-color="#808080" stop-opacity="0.25"/>
<stop offset="0.54" stop-color="#808080" stop-opacity="0.12"/>
<stop offset="1" stop-color="#808080" stop-opacity="0.1"/>
</linearGradient>
<clipPath id="clip0_204_4953">
<rect width="238" height="171" fill="white" transform="translate(0.5)"/>
</clipPath>
</defs>
</svg>
