<svg width="120" height="120" viewBox="0 0 120 120" fill="none" xmlns="http://www.w3.org/2000/svg">
<path d="M49.4156 8.39645C46.7352 9.11301 45.9921 9.67033 45.3551 11.3688C44.5059 13.6246 44.214 15.5885 44.4263 17.6586C45.1163 24.718 50.6895 30.2646 57.6427 30.7423C59.3943 30.875 59.6862 30.9546 59.5535 31.3262C59.4474 31.565 59.2085 32.6531 58.9962 33.7412C58.2797 37.3506 58.492 37.0055 57.0589 36.8463C56.3423 36.7667 54.4846 36.2625 52.9188 35.7317C47.664 33.9801 43.524 33.4493 39.3839 33.9801C25.1059 35.8644 16.348 48.895 17.038 67.1804C17.5953 81.4584 23.8851 96.9307 32.4837 105.078C39.7554 112.005 48.0887 113.703 57.9877 110.306L60.6416 109.378L62.3136 110.041C65.5779 111.368 68.2583 111.872 72.2923 111.872C76.4324 111.899 77.9186 111.58 81.3952 110.014C91.825 105.291 100.397 91.039 103.396 73.4171C104.033 69.7016 104.033 61.103 103.396 57.706C101.379 46.9311 96.5755 39.8187 88.8792 36.1563C85.2168 34.4047 83.0141 33.927 78.529 33.927C74.2562 33.927 72.6107 34.2189 68.1256 35.7051C66.6129 36.2094 64.8613 36.7136 64.2509 36.8198C63.1628 36.979 63.1363 36.979 63.1363 36.2625C63.1363 35.8909 63.3752 34.5905 63.6936 33.4228C65.5514 26.1511 70.0895 21.3475 76.6712 19.7021C78.0513 19.3571 78.6882 19.0652 78.7413 18.7732C78.7943 18.5344 78.6882 17.4994 78.529 16.5174L78.237 14.7127L76.5916 15.0578C73.3804 15.7478 70.6734 16.8624 68.3645 18.5344C67.6479 19.0386 67.0375 19.4102 67.011 19.3571C66.9845 19.304 66.7456 18.614 66.5068 17.8178C65.5779 14.7393 62.6055 11.3158 59.4474 9.64379C56.5015 8.05145 52.4942 7.57375 49.4156 8.39645ZM55.5196 53.3801C56.3954 53.6986 57.855 54.4948 58.8104 55.1583L60.562 56.3525L61.252 55.7952C65.5779 52.3186 70.9653 51.6816 75.7424 54.0171C79.1128 55.689 81.9259 59.2187 82.7752 62.9076C83.306 65.1104 82.9875 68.9851 82.1117 71.6655C80.0151 77.8491 74.3623 84.3512 66.0556 90.0571C64.6756 91.0125 62.8444 92.1802 62.0217 92.6579L60.4824 93.5072L58.9697 92.6314C54.9092 90.349 50.371 86.8989 46.7883 83.3693C41.1089 77.7961 38.2692 72.4882 37.9773 66.8885C37.8181 63.81 38.1631 62.1646 39.4369 59.6964C41.1354 56.4321 44.3467 53.8844 47.9029 52.9821C50.026 52.4513 53.5026 52.637 55.5196 53.3801Z" fill="#24CB77"/>
<path d="M48.6725 57.4406C46.2574 58.2367 44.3466 59.9087 43.2055 62.138C42.0908 64.3938 42.2235 68.1358 43.6035 71.4532C45.4878 76.0975 51.061 82.0157 57.855 86.5804C59.1554 87.4297 60.3231 88.1462 60.4824 88.1462C61.5439 88.1462 68.4441 82.8119 71.6553 79.468C74.6542 76.3364 76.4854 73.6825 77.6266 70.7632C78.2635 69.1708 78.3697 68.5073 78.3697 66.1188C78.3962 63.5976 78.3166 63.1995 77.6797 62.0053C76.8304 60.3599 74.9462 58.5817 73.2742 57.8121C71.5226 56.9894 68.2849 57.0159 66.5067 57.8121C64.994 58.5287 62.977 60.5191 61.6501 62.6688C61.1193 63.5445 60.5885 64.2611 60.4824 64.2611C60.3762 64.2611 59.7658 63.4649 59.1289 62.4564C57.6162 60.1475 55.9707 58.5021 54.4315 57.8386C52.9187 57.1486 50.1321 56.9629 48.6725 57.4406Z" fill="#24CB77"/>
</svg>
