<svg width="178" height="40" viewBox="0 0 178 40" fill="none" xmlns="http://www.w3.org/2000/svg">
<path d="M16.4719 2.79898C15.5784 3.03783 15.3307 3.22361 15.1184 3.78977C14.8353 4.54171 14.738 5.19634 14.8088 5.88636C15.0388 8.23948 16.8965 10.0884 19.2142 10.2476C19.7981 10.2918 19.8954 10.3184 19.8512 10.4422C19.8158 10.5218 19.7362 10.8845 19.6654 11.2472C19.4266 12.4503 19.4973 12.3353 19.0196 12.2823C18.7808 12.2557 18.1615 12.0876 17.6396 11.9107C15.888 11.3269 14.508 11.1499 13.128 11.3269C8.36862 11.955 5.44932 16.2985 5.67933 22.3936C5.8651 27.153 7.96169 32.3104 10.8279 35.0262C13.2518 37.3351 16.0296 37.9013 19.3292 36.769L20.2139 36.4593L20.7712 36.6805C21.8593 37.1228 22.7528 37.2909 24.0974 37.2909C25.4775 37.2997 25.9728 37.1936 27.1317 36.6716C30.6083 35.097 33.4657 30.3465 34.4653 24.4725C34.6777 23.234 34.6777 20.3678 34.4653 19.2355C33.793 15.6439 32.1918 13.2731 29.6264 12.0523C28.4056 11.4684 27.6713 11.3092 26.1763 11.3092C24.7521 11.3092 24.2036 11.4065 22.7085 11.9019C22.2043 12.07 21.6204 12.238 21.417 12.2734C21.0543 12.3265 21.0454 12.3265 21.0454 12.0876C21.0454 11.9638 21.1251 11.5303 21.2312 11.1411C21.8505 8.71719 23.3632 7.116 25.5571 6.56753C26.0171 6.45252 26.2294 6.35521 26.2471 6.2579C26.2648 6.17829 26.2294 5.83328 26.1763 5.50596L26.079 4.90441L25.5305 5.01941C24.4601 5.24942 23.5578 5.62097 22.7882 6.17829C22.5493 6.34637 22.3458 6.47022 22.337 6.45252C22.3282 6.43483 22.2485 6.20483 22.1689 5.93943C21.8593 4.91326 20.8685 3.77208 19.8158 3.21476C18.8338 2.68398 17.498 2.52475 16.4719 2.79898ZM18.5065 17.7935C18.7985 17.8997 19.285 18.1651 19.6035 18.3862L20.1873 18.7843L20.4173 18.5986C21.8593 17.4397 23.6551 17.2274 25.2474 18.0059C26.3709 18.5632 27.3086 19.7397 27.5917 20.9694C27.7687 21.7036 27.6625 22.9952 27.3706 23.8887C26.6717 25.9499 24.7874 28.1172 22.0185 30.0192C21.5585 30.3377 20.9481 30.7269 20.6739 30.8861L20.1608 31.1692L19.6566 30.8773C18.3031 30.1165 16.7903 28.9665 15.5961 27.7899C13.703 25.9322 12.7564 24.1629 12.6591 22.2963C12.606 21.2702 12.721 20.7217 13.1456 19.899C13.7118 18.8109 14.7822 17.9616 15.9676 17.6608C16.6753 17.4839 17.8342 17.5458 18.5065 17.7935Z" fill="#24CB77"/>
<path d="M16.2242 19.147C15.4191 19.4124 14.7822 19.9697 14.4018 20.7128C14.0303 21.4648 14.0745 22.7121 14.5345 23.8179C15.1626 25.366 17.0203 27.3388 19.285 28.8603C19.7185 29.1434 20.1077 29.3823 20.1608 29.3823C20.5146 29.3823 22.8147 27.6041 23.8851 26.4895C24.8847 25.4456 25.4951 24.561 25.8755 23.5879C26.0878 23.0571 26.1232 22.836 26.1232 22.0398C26.1321 21.1994 26.1055 21.0667 25.8932 20.6686C25.6101 20.1201 24.982 19.5274 24.4247 19.2709C23.8409 18.9966 22.7616 19.0055 22.1689 19.2709C21.6647 19.5097 20.9923 20.1732 20.55 20.8898C20.3731 21.1817 20.1962 21.4205 20.1608 21.4205C20.1254 21.4205 19.9219 21.1552 19.7096 20.819C19.2054 20.0494 18.6569 19.5009 18.1438 19.2797C17.6396 19.0497 16.7107 18.9878 16.2242 19.147Z" fill="#24CB77"/>
<path d="M65.984 28.0002H62.624L55.016 16.5042V28.0002H51.656V11.2242H55.016L62.624 22.7442V11.2242H65.984V28.0002ZM81.8564 14.7042V28.0002H78.4724V26.3202C78.0404 26.8962 77.4724 27.3522 76.7684 27.6882C76.0804 28.0082 75.3284 28.1682 74.5124 28.1682C73.4724 28.1682 72.5524 27.9522 71.7524 27.5202C70.9524 27.0722 70.3204 26.4242 69.8564 25.5762C69.4084 24.7122 69.1844 23.6882 69.1844 22.5042V14.7042H72.5444V22.0242C72.5444 23.0802 72.8084 23.8962 73.3364 24.4722C73.8644 25.0322 74.5844 25.3122 75.4964 25.3122C76.4244 25.3122 77.1524 25.0322 77.6804 24.4722C78.2084 23.8962 78.4724 23.0802 78.4724 22.0242V14.7042H81.8564ZM89.0836 17.4642V23.8962C89.0836 24.3442 89.1876 24.6722 89.3956 24.8802C89.6196 25.0722 89.9876 25.1682 90.4996 25.1682H92.0596V28.0002H89.9476C87.1156 28.0002 85.6996 26.6242 85.6996 23.8722V17.4642H84.1156V14.7042H85.6996V11.4162H89.0836V14.7042H92.0596V17.4642H89.0836ZM97.8363 16.7682C98.2683 16.0642 98.8283 15.5122 99.5163 15.1122C100.22 14.7122 101.02 14.5122 101.916 14.5122V18.0402H101.028C99.9723 18.0402 99.1723 18.2882 98.6283 18.7842C98.1003 19.2802 97.8363 20.1442 97.8363 21.3762V28.0002H94.4763V14.7042H97.8363V16.7682ZM105.883 13.1202C105.291 13.1202 104.795 12.9362 104.395 12.5682C104.011 12.1842 103.819 11.7122 103.819 11.1522C103.819 10.5922 104.011 10.1282 104.395 9.76024C104.795 9.37624 105.291 9.18424 105.883 9.18424C106.475 9.18424 106.963 9.37624 107.347 9.76024C107.747 10.1282 107.947 10.5922 107.947 11.1522C107.947 11.7122 107.747 12.1842 107.347 12.5682C106.963 12.9362 106.475 13.1202 105.883 13.1202ZM107.539 14.7042V28.0002H104.179V14.7042H107.539ZM110.043 19.6002C110.043 17.9522 110.411 16.4802 111.147 15.1842C111.899 13.8722 112.915 12.8562 114.195 12.1362C115.491 11.4002 116.939 11.0322 118.539 11.0322C120.411 11.0322 122.051 11.5122 123.459 12.4722C124.867 13.4322 125.851 14.7602 126.411 16.4562H122.547C122.163 15.6562 121.619 15.0562 120.915 14.6562C120.227 14.2562 119.427 14.0562 118.515 14.0562C117.539 14.0562 116.667 14.2882 115.899 14.7522C115.147 15.2002 114.555 15.8402 114.123 16.6722C113.707 17.5042 113.499 18.4802 113.499 19.6002C113.499 20.7042 113.707 21.6802 114.123 22.5282C114.555 23.3602 115.147 24.0082 115.899 24.4722C116.667 24.9202 117.539 25.1442 118.515 25.1442C119.427 25.1442 120.227 24.9442 120.915 24.5442C121.619 24.1282 122.163 23.5202 122.547 22.7202H126.411C125.851 24.4322 124.867 25.7682 123.459 26.7282C122.067 27.6722 120.427 28.1442 118.539 28.1442C116.939 28.1442 115.491 27.7842 114.195 27.0642C112.915 26.3282 111.899 25.3122 111.147 24.0162C110.411 22.7202 110.043 21.2482 110.043 19.6002ZM132.641 10.2402V28.0002H129.281V10.2402H132.641ZM137.665 13.1202C137.073 13.1202 136.577 12.9362 136.177 12.5682C135.793 12.1842 135.601 11.7122 135.601 11.1522C135.601 10.5922 135.793 10.1282 136.177 9.76024C136.577 9.37624 137.073 9.18424 137.665 9.18424C138.257 9.18424 138.745 9.37624 139.129 9.76024C139.529 10.1282 139.729 10.5922 139.729 11.1522C139.729 11.7122 139.529 12.1842 139.129 12.5682C138.745 12.9362 138.257 13.1202 137.665 13.1202ZM139.321 14.7042V28.0002H135.961V14.7042H139.321ZM150.008 14.5122C151.592 14.5122 152.872 15.0162 153.848 16.0242C154.824 17.0162 155.312 18.4082 155.312 20.2002V28.0002H151.952V20.6562C151.952 19.6002 151.688 18.7922 151.16 18.2322C150.632 17.6562 149.912 17.3682 149 17.3682C148.072 17.3682 147.336 17.6562 146.792 18.2322C146.264 18.7922 146 19.6002 146 20.6562V28.0002H142.64V14.7042H146V16.3602C146.448 15.7842 147.016 15.3362 147.704 15.0162C148.408 14.6802 149.176 14.5122 150.008 14.5122ZM160.212 13.1202C159.62 13.1202 159.124 12.9362 158.724 12.5682C158.34 12.1842 158.148 11.7122 158.148 11.1522C158.148 10.5922 158.34 10.1282 158.724 9.76024C159.124 9.37624 159.62 9.18424 160.212 9.18424C160.804 9.18424 161.292 9.37624 161.676 9.76024C162.076 10.1282 162.276 10.5922 162.276 11.1522C162.276 11.7122 162.076 12.1842 161.676 12.5682C161.292 12.9362 160.804 13.1202 160.212 13.1202ZM161.868 14.7042V28.0002H158.508V14.7042H161.868ZM164.323 21.3522C164.323 19.9762 164.603 18.7762 165.163 17.7522C165.723 16.7122 166.499 15.9122 167.491 15.3522C168.483 14.7762 169.619 14.4882 170.899 14.4882C172.547 14.4882 173.907 14.9042 174.979 15.7362C176.067 16.5522 176.795 17.7042 177.163 19.1922H173.539C173.347 18.6162 173.019 18.1682 172.555 17.8482C172.107 17.5122 171.547 17.3442 170.875 17.3442C169.915 17.3442 169.155 17.6962 168.595 18.4002C168.035 19.0882 167.755 20.0722 167.755 21.3522C167.755 22.6162 168.035 23.6002 168.595 24.3042C169.155 24.9922 169.915 25.3362 170.875 25.3362C172.235 25.3362 173.123 24.7282 173.539 23.5122H177.163C176.795 24.9522 176.067 26.0962 174.979 26.9442C173.891 27.7922 172.531 28.2162 170.899 28.2162C169.619 28.2162 168.483 27.9362 167.491 27.3762C166.499 26.8002 165.723 26.0002 165.163 24.9762C164.603 23.9362 164.323 22.7282 164.323 21.3522Z" fill="#28293D"/>
</svg>
