<svg width="178" height="40" viewBox="0 0 178 40" fill="none" xmlns="http://www.w3.org/2000/svg">
<path d="M16.4718 2.79849C15.5784 3.03735 15.3307 3.22312 15.1183 3.78928C14.8353 4.54123 14.7379 5.19585 14.8087 5.88587C15.0387 8.239 16.8965 10.0879 19.2142 10.2471C19.7981 10.2913 19.8954 10.3179 19.8511 10.4417C19.8158 10.5214 19.7361 10.8841 19.6654 11.2468C19.4265 12.4499 19.4973 12.3349 19.0196 12.2818C18.7807 12.2552 18.1615 12.0872 17.6396 11.9102C15.888 11.3264 14.5079 11.1494 13.1279 11.3264C8.36858 11.9545 5.44928 16.298 5.67929 22.3932C5.86506 27.1525 7.96165 32.3099 10.8279 35.0257C13.2518 37.3346 16.0295 37.9008 19.3292 36.7685L20.2138 36.4588L20.7712 36.68C21.8593 37.1223 22.7527 37.2904 24.0974 37.2904C25.4774 37.2993 25.9728 37.1931 27.1317 36.6712C30.6083 35.0965 33.4657 30.346 34.4653 24.472C34.6776 23.2336 34.6776 20.3673 34.4653 19.235C33.793 15.6434 32.1918 13.2726 29.6264 12.0518C28.4056 11.4679 27.6713 11.3087 26.1763 11.3087C24.752 11.3087 24.2035 11.406 22.7085 11.9014C22.2043 12.0695 21.6204 12.2375 21.4169 12.2729C21.0542 12.326 21.0454 12.326 21.0454 12.0872C21.0454 11.9633 21.125 11.5298 21.2312 11.1406C21.8504 8.7167 23.3631 7.11551 25.557 6.56704C26.017 6.45203 26.2294 6.35472 26.247 6.25742C26.2647 6.1778 26.2294 5.83279 26.1763 5.50548L26.079 4.90392L25.5305 5.01892C24.4601 5.24893 23.5578 5.62048 22.7881 6.1778C22.5493 6.34588 22.3458 6.46973 22.337 6.45203C22.3281 6.43434 22.2485 6.20434 22.1689 5.93895C21.8593 4.91277 20.8685 3.77159 19.8158 3.21427C18.8338 2.68349 17.498 2.52426 16.4718 2.79849ZM18.5065 17.7931C18.7984 17.8992 19.285 18.1646 19.6034 18.3858L20.1873 18.7838L20.4173 18.5981C21.8593 17.4392 23.6551 17.2269 25.2474 18.0054C26.3709 18.5627 27.3086 19.7392 27.5917 20.9689C27.7686 21.7031 27.6625 22.9947 27.3705 23.8882C26.6717 25.9494 24.7874 28.1167 22.0185 30.0187C21.5585 30.3372 20.9481 30.7264 20.6738 30.8856L20.1608 31.1687L19.6565 30.8768C18.303 30.116 16.7903 28.966 15.596 27.7894C13.7029 25.9317 12.7564 24.1624 12.6591 22.2958C12.606 21.2697 12.721 20.7212 13.1456 19.8985C13.7118 18.8104 14.7822 17.9611 15.9676 17.6604C16.6753 17.4834 17.8342 17.5454 18.5065 17.7931Z" fill="white"/>
<path d="M16.2241 19.1466C15.4191 19.412 14.7821 19.9693 14.4017 20.7124C14.0302 21.4644 14.0744 22.7117 14.5344 23.8175C15.1625 25.3656 17.0202 27.3383 19.2849 28.8599C19.7184 29.143 20.1076 29.3818 20.1607 29.3818C20.5146 29.3818 22.8146 27.6037 23.885 26.4891C24.8846 25.4452 25.495 24.5606 25.8754 23.5875C26.0877 23.0567 26.1231 22.8355 26.1231 22.0394C26.132 21.199 26.1054 21.0663 25.8931 20.6682C25.61 20.1197 24.982 19.527 24.4246 19.2705C23.8408 18.9962 22.7615 19.0051 22.1688 19.2705C21.6646 19.5093 20.9923 20.1728 20.5499 20.8893C20.373 21.1813 20.1961 21.4201 20.1607 21.4201C20.1253 21.4201 19.9218 21.1547 19.7095 20.8186C19.2053 20.0489 18.6568 19.5005 18.1437 19.2793C17.6395 19.0493 16.7106 18.9874 16.2241 19.1466Z" fill="white"/>
<path d="M65.984 28H62.624L55.016 16.504V28H51.656V11.224H55.016L62.624 22.744V11.224H65.984V28ZM81.8564 14.704V28H78.4724V26.32C78.0404 26.896 77.4724 27.352 76.7684 27.688C76.0804 28.008 75.3284 28.168 74.5124 28.168C73.4724 28.168 72.5524 27.952 71.7524 27.52C70.9524 27.072 70.3204 26.424 69.8564 25.576C69.4084 24.712 69.1844 23.688 69.1844 22.504V14.704H72.5444V22.024C72.5444 23.08 72.8084 23.896 73.3364 24.472C73.8644 25.032 74.5844 25.312 75.4964 25.312C76.4244 25.312 77.1524 25.032 77.6804 24.472C78.2084 23.896 78.4724 23.08 78.4724 22.024V14.704H81.8564ZM89.0836 17.464V23.896C89.0836 24.344 89.1876 24.672 89.3956 24.88C89.6196 25.072 89.9876 25.168 90.4996 25.168H92.0596V28H89.9476C87.1156 28 85.6996 26.624 85.6996 23.872V17.464H84.1156V14.704H85.6996V11.416H89.0836V14.704H92.0596V17.464H89.0836ZM97.8363 16.768C98.2683 16.064 98.8283 15.512 99.5163 15.112C100.22 14.712 101.02 14.512 101.916 14.512V18.04H101.028C99.9723 18.04 99.1723 18.288 98.6283 18.784C98.1003 19.28 97.8363 20.144 97.8363 21.376V28H94.4763V14.704H97.8363V16.768ZM105.883 13.12C105.291 13.12 104.795 12.936 104.395 12.568C104.011 12.184 103.819 11.712 103.819 11.152C103.819 10.592 104.011 10.128 104.395 9.76C104.795 9.376 105.291 9.184 105.883 9.184C106.475 9.184 106.963 9.376 107.347 9.76C107.747 10.128 107.947 10.592 107.947 11.152C107.947 11.712 107.747 12.184 107.347 12.568C106.963 12.936 106.475 13.12 105.883 13.12ZM107.539 14.704V28H104.179V14.704H107.539ZM110.043 19.6C110.043 17.952 110.411 16.48 111.147 15.184C111.899 13.872 112.915 12.856 114.195 12.136C115.491 11.4 116.939 11.032 118.539 11.032C120.411 11.032 122.051 11.512 123.459 12.472C124.867 13.432 125.851 14.76 126.411 16.456H122.547C122.163 15.656 121.619 15.056 120.915 14.656C120.227 14.256 119.427 14.056 118.515 14.056C117.539 14.056 116.667 14.288 115.899 14.752C115.147 15.2 114.555 15.84 114.123 16.672C113.707 17.504 113.499 18.48 113.499 19.6C113.499 20.704 113.707 21.68 114.123 22.528C114.555 23.36 115.147 24.008 115.899 24.472C116.667 24.92 117.539 25.144 118.515 25.144C119.427 25.144 120.227 24.944 120.915 24.544C121.619 24.128 122.163 23.52 122.547 22.72H126.411C125.851 24.432 124.867 25.768 123.459 26.728C122.067 27.672 120.427 28.144 118.539 28.144C116.939 28.144 115.491 27.784 114.195 27.064C112.915 26.328 111.899 25.312 111.147 24.016C110.411 22.72 110.043 21.248 110.043 19.6ZM132.641 10.24V28H129.281V10.24H132.641ZM137.665 13.12C137.073 13.12 136.577 12.936 136.177 12.568C135.793 12.184 135.601 11.712 135.601 11.152C135.601 10.592 135.793 10.128 136.177 9.76C136.577 9.376 137.073 9.184 137.665 9.184C138.257 9.184 138.745 9.376 139.129 9.76C139.529 10.128 139.729 10.592 139.729 11.152C139.729 11.712 139.529 12.184 139.129 12.568C138.745 12.936 138.257 13.12 137.665 13.12ZM139.321 14.704V28H135.961V14.704H139.321ZM150.008 14.512C151.592 14.512 152.872 15.016 153.848 16.024C154.824 17.016 155.312 18.408 155.312 20.2V28H151.952V20.656C151.952 19.6 151.688 18.792 151.16 18.232C150.632 17.656 149.912 17.368 149 17.368C148.072 17.368 147.336 17.656 146.792 18.232C146.264 18.792 146 19.6 146 20.656V28H142.64V14.704H146V16.36C146.448 15.784 147.016 15.336 147.704 15.016C148.408 14.68 149.176 14.512 150.008 14.512ZM160.212 13.12C159.62 13.12 159.124 12.936 158.724 12.568C158.34 12.184 158.148 11.712 158.148 11.152C158.148 10.592 158.34 10.128 158.724 9.76C159.124 9.376 159.62 9.184 160.212 9.184C160.804 9.184 161.292 9.376 161.676 9.76C162.076 10.128 162.276 10.592 162.276 11.152C162.276 11.712 162.076 12.184 161.676 12.568C161.292 12.936 160.804 13.12 160.212 13.12ZM161.868 14.704V28H158.508V14.704H161.868ZM164.323 21.352C164.323 19.976 164.603 18.776 165.163 17.752C165.723 16.712 166.499 15.912 167.491 15.352C168.483 14.776 169.619 14.488 170.899 14.488C172.547 14.488 173.907 14.904 174.979 15.736C176.067 16.552 176.795 17.704 177.163 19.192H173.539C173.347 18.616 173.019 18.168 172.555 17.848C172.107 17.512 171.547 17.344 170.875 17.344C169.915 17.344 169.155 17.696 168.595 18.4C168.035 19.088 167.755 20.072 167.755 21.352C167.755 22.616 168.035 23.6 168.595 24.304C169.155 24.992 169.915 25.336 170.875 25.336C172.235 25.336 173.123 24.728 173.539 23.512H177.163C176.795 24.952 176.067 26.096 174.979 26.944C173.891 27.792 172.531 28.216 170.899 28.216C169.619 28.216 168.483 27.936 167.491 27.376C166.499 26.8 165.723 26 165.163 24.976C164.603 23.936 164.323 22.728 164.323 21.352Z" fill="white"/>
</svg>
