<svg width="219" height="166" viewBox="0 0 219 166" fill="none" xmlns="http://www.w3.org/2000/svg">
<g clip-path="url(#clip0_204_4790)">
<path d="M132.794 50.0225C133.067 50.0349 133.336 49.9637 133.567 49.8184C133.797 49.6732 133.977 49.4609 134.083 49.2104C134.188 48.9598 134.213 48.6831 134.155 48.4178C134.097 48.1524 133.959 47.9112 133.758 47.7269C133.725 47.5942 133.701 47.4988 133.667 47.3661C133.679 47.3372 133.691 47.3084 133.703 47.2795C134.928 44.3721 139.079 44.3921 140.293 47.3039C141.371 49.8882 142.743 52.477 143.081 55.2095C143.23 56.4173 143.167 57.6417 142.895 58.8282C145.427 53.3306 146.741 47.3554 146.75 41.3076C146.75 39.79 146.666 38.2736 146.496 36.7654C146.356 35.529 146.162 34.3014 145.913 33.0826C144.556 26.4695 141.643 20.2711 137.413 14.9966C135.366 13.8844 133.71 12.1741 132.669 10.0962C132.292 9.3493 132.025 8.55195 131.878 7.72898C132.109 7.75914 132.749 4.25726 132.574 4.0424C132.896 3.55615 133.472 3.31444 133.824 2.83995C135.572 0.480162 137.981 0.892197 139.238 4.09896C141.924 5.44867 141.95 7.68706 140.302 9.83988C139.253 11.2095 139.109 13.0628 138.189 14.5291C138.284 14.6497 138.382 14.7666 138.477 14.8872C140.207 17.1024 141.715 19.481 142.98 21.989C142.622 19.2074 143.15 15.8563 144.05 13.6961C145.075 11.2348 146.996 9.16189 148.687 7.03411C150.719 4.47832 154.885 5.59372 155.243 8.83359C155.247 8.86496 155.25 8.89632 155.253 8.92767C155.002 9.06877 154.756 9.21855 154.516 9.37701C154.213 9.57809 153.979 9.8654 153.844 10.2013C153.708 10.5372 153.678 10.906 153.756 11.2594C153.835 11.6127 154.019 11.9342 154.284 12.1817C154.55 12.4292 154.884 12.5911 155.243 12.6463L155.28 12.6519C155.19 13.5534 155.032 14.4469 154.807 15.3245C156.977 23.6794 152.292 26.7224 145.602 26.8591C145.455 26.9345 145.311 27.0099 145.163 27.0816C146.433 30.6653 147.23 34.3982 147.533 38.1865C147.705 40.4214 147.695 42.6666 147.503 44.8999L147.514 44.8208C147.999 42.3373 149.33 40.0965 151.282 38.4767C154.181 36.1057 158.277 35.2326 161.404 33.3267C162.91 32.4093 164.839 33.5949 164.576 35.3327C164.572 35.3604 164.568 35.3881 164.564 35.4159C164.097 35.6049 163.643 35.8227 163.204 36.068C162.953 36.2091 162.707 36.3589 162.466 36.5173C162.164 36.7184 161.93 37.0057 161.794 37.3416C161.659 37.6775 161.629 38.0463 161.707 38.3997C161.786 38.7531 161.97 39.0746 162.235 39.3221C162.5 39.5695 162.835 39.7315 163.194 39.7866L163.231 39.7922C163.257 39.796 163.28 39.7998 163.307 39.8036C162.51 41.6973 161.392 43.4404 160.001 44.9565C158.644 52.25 152.817 52.942 146.583 50.818H146.579C145.895 53.7771 144.904 56.6574 143.622 59.4124H133.059C133.021 59.2956 132.987 59.175 132.953 59.0581C133.931 59.1193 134.912 59.0611 135.876 58.8847C135.092 57.9273 134.308 56.9623 133.525 56.0048C133.507 55.9869 133.491 55.968 133.475 55.9483C133.078 55.4583 132.677 54.972 132.279 54.482L132.279 54.4814C132.258 52.9793 132.431 51.4807 132.794 50.0227L132.794 50.0225Z" fill="#F2F2F2"/>
<path d="M166.71 23.1079C164.746 15.9784 180.588 9.86468 184.748 15.6061C185.326 14.7898 187.464 14.294 188.445 14.5444C189.426 14.7948 190.25 15.4208 191.055 16.0268C192.162 16.8731 193.309 17.7495 193.988 18.9664C194.672 20.1783 194.778 21.8309 193.857 22.8826C193.128 23.7189 190.975 24.2597 189.878 24.4801C189.114 24.6353 188.47 24.7605 187.917 24.8507C187.414 24.1298 187.182 23.2557 187.263 22.3818C186.89 22.6319 186.578 22.961 186.348 23.3454C186.119 23.7298 185.978 24.1601 185.935 24.6053C185.92 24.7906 192.117 47.4913 192.117 47.4913C191.372 47.9132 190.589 48.2636 189.778 48.5379C188.173 46.0961 186.944 43.4291 186.131 40.6255C185.944 42.5002 185.968 44.3898 186.201 46.2594C186.326 47.3077 186.504 48.349 186.735 49.3793C179.371 50.9618 168.295 50.441 163.476 43.7104C163.475 43.6825 163.474 43.6547 163.473 43.6268C163.47 43.3611 163.373 43.105 163.201 42.9023C163.028 42.6996 162.79 42.563 162.527 42.5158C162.265 42.4686 161.994 42.5138 161.761 42.6436C161.528 42.7734 161.348 42.9798 161.251 43.2274C161.134 43.5243 161.027 43.7813 160.931 43.9858C159.527 38.9879 161.343 33.2038 166.71 23.1079Z" fill="#2F2E41"/>
<path d="M154.179 142.637V142.87C154.17 142.793 154.17 142.714 154.179 142.637Z" fill="#2F2E41"/>
<path d="M161.39 102.289C161.578 102.238 161.768 102.201 161.961 102.178C161.74 102.214 161.55 102.251 161.39 102.289Z" fill="#2F2E41"/>
<path d="M161.223 102.331C161.274 102.316 161.33 102.302 161.39 102.288C161.334 102.303 161.281 102.313 161.223 102.331Z" fill="#2F2E41"/>
<path d="M214.503 165.999H187.51C187.125 165.693 186.857 165.265 186.752 164.785C186.647 164.306 186.71 163.806 186.932 163.367C187.67 161.684 186.225 160.145 186.225 160.145C185.734 159.573 185.393 158.889 185.232 158.154C185.07 157.419 185.094 156.656 185.299 155.933C186.015 153.446 183.212 146.427 183.212 146.427C183.212 146.427 181.701 155.49 179.85 165.999H154.179C153.749 165.27 153.522 164.44 153.522 163.594C153.522 162.748 153.749 161.918 154.179 161.189C155.675 158.663 154.179 158.179 154.179 158.179C154.179 158.179 152.683 155.353 154.179 153.301C155.675 151.249 154.179 142.87 154.179 142.87C154.235 143.241 154.661 142.567 155.318 141.155C156.317 139.007 157.843 135.143 159.386 130.657C160.488 127.456 161.6 123.933 162.529 120.489H162.531C162.775 119.584 163.006 118.688 163.224 117.8C163.65 116.057 164.015 114.365 164.293 112.775C164.895 109.351 165.093 106.41 164.631 104.497C164.247 102.906 163.409 102.028 161.961 102.178C162.737 102.05 163.873 101.929 165.273 101.815C165.526 101.794 165.788 101.774 166.058 101.752C176.503 100.966 198.914 100.515 198.914 100.515L205.778 112.753L214.471 128.255C214.471 128.255 214.234 149.051 214.503 165.999Z" fill="#2F2E41"/>
<path d="M185.692 47.6197L169.877 44.2798L166.737 50.5725L156.163 56.6674C156.163 56.6674 162.979 84.4141 162.94 88.3165C162.841 98.2241 146.919 120.434 158.946 118.725C170.973 117.017 173.416 109.86 177.277 110.992C180.759 112.012 185.011 116.552 187.857 113.305C190.703 110.058 191.706 113.808 193.506 113.937C194.361 113.999 193.846 109.837 195.998 114.067C198.151 118.296 209.563 112.603 205.695 108.752C199.253 102.338 197.944 55.0594 197.944 55.0594L190.772 52.8626L185.692 47.6197Z" fill="#E6E6E6"/>
<path d="M155.864 148.384C156.499 147.63 156.814 146.658 156.741 145.676C156.668 144.694 156.213 143.78 155.473 143.127C155.321 142.996 155.157 142.879 154.985 142.775L157.63 129.855L151.517 126.213L149.817 144.301C149.44 145.045 149.322 145.891 149.48 146.709C149.638 147.526 150.063 148.269 150.689 148.82C151.049 149.131 151.466 149.367 151.917 149.517C152.368 149.667 152.845 149.727 153.32 149.694C153.794 149.66 154.257 149.534 154.683 149.322C155.109 149.11 155.488 148.817 155.8 148.46C155.822 148.435 155.843 148.409 155.864 148.384Z" fill="#A0616A"/>
<path d="M174.844 80.2818C174.805 79.8664 174.273 79.6778 173.536 79.4174C172.795 79.1903 172.091 78.8583 171.445 78.4318C169.813 77.2576 170.456 76.0296 171.344 74.3323C171.518 74.0023 171.698 73.6588 171.867 73.3018C172.37 72.2444 171.57 67.8822 169.484 60.3342C168.841 58.0105 168.843 56.3694 168.399 55.2805C167.957 54.1916 167.071 53.6551 164.656 53.5428C161.736 53.3961 158.878 54.4077 156.707 56.3559C156.648 56.4075 156.587 56.4637 156.529 56.5175C156.418 56.6208 156.31 56.7263 156.204 56.8341C154.196 58.8452 153.047 61.5514 152.997 64.3866L152.986 64.8693L152.488 87.9308L151.087 108.168L149.157 136.045L150.587 136.115L156.292 136.398L156.984 136.431L158.626 129.575L160.601 121.324L161.327 118.293L163.58 108.891L164.631 104.497L165.274 101.814L165.535 100.719L166.811 95.3934C166.841 95.2812 169.777 83.7482 173.162 81.8196C174.424 81.1012 174.88 80.6836 174.844 80.2818Z" fill="#E6E6E6"/>
<path d="M212.821 148.246C212.108 147.564 211.69 146.632 211.657 145.648C211.623 144.664 211.977 143.706 212.642 142.978C212.78 142.832 212.929 142.698 213.089 142.576L209.067 130.014L214.751 125.739L218.393 143.541C218.847 144.24 219.056 145.069 218.987 145.898C218.918 146.728 218.576 147.511 218.013 148.127C217.689 148.474 217.3 148.754 216.867 148.951C216.435 149.148 215.967 149.259 215.492 149.276C215.016 149.294 214.542 149.218 214.096 149.053C213.65 148.888 213.241 148.637 212.893 148.315C212.868 148.292 212.844 148.27 212.821 148.246Z" fill="#A0616A"/>
<path d="M215.602 120.987C215.602 120.987 211.168 105.457 212.52 103.776C213.872 102.095 209.879 101.766 211.6 98.6353C213.321 95.5043 210.945 94.9806 210.945 94.9806L209.657 87.7816L207.352 70.0989L207.283 69.5731L206.612 64.4286C206.425 62.9592 205.942 61.5425 205.193 60.2632C204.443 58.9839 203.442 57.8682 202.249 56.9829C202.188 56.9365 202.126 56.8919 202.064 56.8473C201.78 56.644 201.49 56.4556 201.194 56.2821C198.982 54.9831 196.385 54.4919 193.849 54.8931C189.07 55.6341 190.558 57.4083 189.782 62.1614C188.523 69.8898 188.196 74.3113 188.81 75.3103C189.017 75.6467 189.235 75.9685 189.442 76.2775C190.509 77.8722 191.28 79.0226 189.783 80.3671C189.186 80.8585 188.522 81.2629 187.811 81.5682C187.107 81.9075 186.598 82.1509 186.605 82.568C186.613 82.972 187.11 83.3369 188.442 83.9155C190.057 84.6188 191.79 87.2779 193.211 89.9943C194.337 92.1839 195.342 94.4335 196.221 96.733L208.426 130.91L210.417 136.484L211.104 136.375L216.743 135.485L218.158 135.262L215.602 120.987Z" fill="#E6E6E6"/>
<path d="M179.02 44.044C186.145 44.044 191.922 38.2928 191.922 31.1985C191.922 24.1041 186.145 18.353 179.02 18.353C171.894 18.353 166.117 24.1041 166.117 31.1985C166.117 38.2928 171.894 44.044 179.02 44.044Z" fill="#A0616A"/>
<path d="M159.668 24.1094C157.704 16.9799 173.546 10.8661 177.706 16.6076C178.284 15.7913 180.422 15.2955 181.403 15.5459C182.384 15.7963 183.209 16.4223 184.013 17.0282C185.12 17.8746 186.267 18.751 186.946 19.9679C187.63 21.1798 187.736 22.8324 186.815 23.884C186.086 24.7203 183.933 25.2612 182.836 25.4816C182.072 25.6368 181.428 25.762 180.875 25.8521C180.372 25.1312 180.14 24.2571 180.221 23.3832C179.848 23.6334 179.536 23.9624 179.306 24.3469C179.077 24.7313 178.936 25.1615 178.893 25.6067C178.878 25.792 185.075 48.4928 185.075 48.4928C184.33 48.9147 183.547 49.2651 182.736 49.5394C181.131 47.0976 179.902 44.4306 179.089 41.627C178.902 43.5017 178.926 45.3913 179.159 47.2608C179.284 48.3092 179.462 49.3505 179.693 50.3807C172.329 51.9632 161.253 51.4424 156.434 44.7118C156.433 44.684 156.432 44.6561 156.431 44.6282C156.428 44.3626 156.331 44.1065 156.159 43.9038C155.986 43.7011 155.748 43.5645 155.485 43.5173C155.223 43.4701 154.952 43.5153 154.719 43.6451C154.486 43.7749 154.306 43.9813 154.209 44.2288C154.092 44.5258 153.985 44.7828 153.889 44.9873C152.485 39.9894 154.301 34.2053 159.668 24.1094Z" fill="#2F2E41"/>
<path d="M95.6807 68.4961C95.4083 68.5085 95.1385 68.4373 94.9081 68.292C94.6776 68.1468 94.4976 67.9345 94.3924 67.684C94.2871 67.4334 94.2618 67.1567 94.3198 66.8914C94.3778 66.626 94.5164 66.3849 94.7166 66.2005C94.7502 66.0678 94.7743 65.9725 94.8078 65.8397C94.7958 65.8108 94.7837 65.782 94.7716 65.7531C93.5469 62.8457 89.3962 62.8657 88.1819 65.7775C87.1042 68.3619 85.732 70.9506 85.3941 73.6831C85.2453 74.8909 85.3081 76.1153 85.5796 77.3018C83.0483 71.8042 81.7338 65.829 81.7253 59.7812C81.7248 58.2636 81.8095 56.7472 81.979 55.239C82.1191 54.0026 82.3135 52.775 82.5621 51.5562C83.9189 44.9431 86.8319 38.7448 91.062 33.4702C93.1093 32.358 94.765 30.6478 95.806 28.5699C96.1831 27.8229 96.4497 27.0256 96.5973 26.2026C96.3664 26.2328 95.7265 22.7309 95.9007 22.516C95.5788 22.0298 95.0028 21.7881 94.6513 21.3136C92.903 18.9538 90.4944 19.3658 89.237 22.5726C86.551 23.9223 86.525 26.1607 88.1731 28.3135C89.2217 29.6832 89.3658 31.5364 90.2858 33.0027C90.1911 33.1234 90.0927 33.2402 89.9981 33.3609C88.2678 35.576 86.7597 37.9546 85.4955 40.4626C85.8532 37.681 85.3251 34.3299 84.4249 32.1697C83.4001 29.7084 81.4793 27.6355 79.7878 25.5077C77.7561 22.952 73.5898 24.0674 73.2318 27.3072C73.2283 27.3386 73.225 27.37 73.2217 27.4013C73.4729 27.5424 73.7188 27.6922 73.9595 27.8506C74.2618 28.0517 74.496 28.339 74.6315 28.6749C74.767 29.0108 74.7974 29.3796 74.7187 29.733C74.6401 30.0864 74.4561 30.4079 74.1908 30.6554C73.9255 30.9028 73.5913 31.0648 73.232 31.1199L73.1952 31.1255C73.2847 32.0271 73.4429 32.9205 73.6684 33.7981C71.4985 42.153 76.1833 45.1961 82.8725 45.3328C83.0202 45.4082 83.1641 45.4835 83.3118 45.5552C82.0416 49.1389 81.2449 52.8718 80.9416 56.6601C80.7699 58.8951 80.7801 61.1402 80.9719 63.3735L80.9606 63.2944C80.4759 60.8109 79.1452 58.5701 77.1933 56.9503C74.2942 54.5793 70.1984 53.7062 67.0708 51.8004C65.5652 50.8829 63.636 52.0685 63.8987 53.8063C63.9029 53.834 63.9072 53.8618 63.9115 53.8895C64.3778 54.0786 64.8317 54.2964 65.2707 54.5416C65.522 54.6828 65.7679 54.8325 66.0085 54.991C66.3108 55.1921 66.5451 55.4794 66.6806 55.8152C66.816 56.1511 66.8465 56.5199 66.7678 56.8733C66.6892 57.2267 66.5051 57.5482 66.2398 57.7957C65.9745 58.0432 65.6403 58.2051 65.281 58.2603L65.2442 58.2659C65.2177 58.2697 65.195 58.2734 65.1685 58.2772C65.9652 60.1709 67.0832 61.914 68.4738 63.4301C69.8306 70.7236 75.6582 71.4156 81.8919 69.2916H81.8957C82.5797 72.2507 83.5707 75.131 84.8527 77.8861H95.416C95.4539 77.7692 95.488 77.6486 95.5221 77.5317C94.5443 77.5929 93.5627 77.5347 92.5991 77.3584C93.3829 76.4009 94.1666 75.4359 94.9504 74.4785C94.9678 74.4606 94.9843 74.4417 94.9996 74.4219C95.3971 73.9319 95.7985 73.4456 96.196 72.9556L96.1962 72.955C96.2174 71.4529 96.0443 69.9544 95.6811 68.4963L95.6807 68.4961Z" fill="#F2F2F2"/>
<path d="M46.3914 15.606C46.1516 16.1622 38.7592 16.1026 38.4207 16.5979C35.8103 20.4219 45.2203 36.692 42.6099 40.521L42.2462 40.9524C43.0978 40.5617 43.9159 40.1022 44.6922 39.5786C44.762 38.0113 44.8317 36.439 44.9064 34.8718C45.6883 35.8676 46.3194 36.9721 46.7795 38.1502C47.3873 37.7236 47.8859 36.9329 50.4909 35.3777C51.5455 34.2243 52.7613 33.2279 54.1009 32.4191L46.3914 15.606Z" fill="#2F2E41"/>
<path d="M51.7593 46.9456C50.9436 46.4166 50.0128 46.0888 49.0444 45.9896C48.0759 45.8903 47.0976 46.0224 46.1907 46.375C45.2838 46.7275 44.4744 47.2903 43.8297 48.0166C43.185 48.7429 42.7236 49.6119 42.4837 50.5513L31.2499 79.6931L11.9403 68.7788C11.8556 67.5243 11.3739 66.3287 10.5644 65.3636C9.75497 64.3985 8.6593 63.7133 7.43457 63.4065C6.20983 63.0997 4.91895 63.1869 3.74707 63.6556C2.57519 64.1243 1.58252 64.9505 0.911426 66.0157C0.240334 67.0809 -0.0747009 68.3302 0.0115065 69.5847C0.0977139 70.8391 0.580735 72.0341 1.39129 72.9983C2.20185 73.9626 3.29829 74.6464 4.52338 74.9519C5.74846 75.2574 7.03924 75.1687 8.21059 74.6987C12.277 79.0196 29.9065 96.7355 37.2049 89.8135C43.3397 83.9952 52.1928 61.4456 54.3239 53.6587C54.6653 52.4136 54.6009 51.0927 54.14 49.8863C53.6791 48.6799 52.8456 47.6502 51.7593 46.9456Z" fill="#FFB6B6"/>
<path d="M30.6655 91.0347L34.2106 106.987L60.133 109.322L62.5154 95.4313L30.6655 91.0347Z" fill="#FFB6B6"/>
<path d="M70.2625 131.943C70.2507 132.172 70.2365 132.398 70.2199 132.627C69.9712 135.932 69.6871 139.744 69.3792 143.922C68.8938 150.552 68.3515 158.101 67.8045 165.999H13.4319L23.9769 134.443C23.9769 134.443 28.2347 132.109 26.067 128.188C23.8993 124.268 28.1646 127.392 28.2042 121.793C28.2439 116.193 32.066 110.236 32.066 110.236L32.6935 101.758L33.0511 101.765L61.3468 102.235L61.8631 102.244L62.7321 109.522C68.0089 115.774 70.7009 123.789 70.2625 131.943Z" fill="#2F2E41"/>
<path d="M46.8446 39.215L59.7475 38.5532L65.7405 47.9813C65.7405 47.9813 77.0165 49.8582 76.2349 63.0871C75.4533 76.3161 62.5154 87.9246 62.5154 87.9246L63.0684 86.0368L62.1079 88.7693L62.2311 90.3036L63.5414 91.9284L63.6763 93.6089L62.5154 96.2676C62.6663 96.5085 62.7464 96.7867 62.7466 97.0707C62.7468 97.3546 62.667 97.633 62.5164 97.8741C62.3658 98.1152 62.1503 98.3095 61.8943 98.4348C61.6384 98.5602 61.3523 98.6116 61.0685 98.5833L42.4249 96.7231C42.0004 95.5606 41.6599 94.1697 39.9584 96.4852L38.2022 96.3158L30.9014 95.6116L30.4717 94.0531C30.2275 93.1675 30.1894 92.2382 30.3604 91.3358C30.5314 90.4334 30.9068 89.5817 31.4582 88.8455C30.8241 86.8685 30.9902 84.7231 31.9212 82.8662L31.9561 82.7966L32.7314 82.1532C32.7314 82.1532 24.2493 69.4661 33.9865 59.9103L37.8945 53.2958L42.2673 47.9843L46.8446 39.215Z" fill="#24CB77"/>
<path d="M50.0558 33.6494C56.8133 33.6494 62.2913 28.1955 62.2913 21.4678C62.2913 14.74 56.8133 9.28613 50.0558 9.28613C43.2983 9.28613 37.8203 14.74 37.8203 21.4678C37.8203 28.1955 43.2983 33.6494 50.0558 33.6494Z" fill="#FFB6B6"/>
<path d="M59.3489 39.0163C58.3525 38.1874 57.659 37.0541 57.3761 35.7925C57.1498 37.3243 57.2089 38.8846 57.5505 40.3951C56.8879 40.8911 56.2453 41.3623 55.6375 41.7888C55.1774 40.6108 54.5463 39.5062 53.7644 38.5104C53.6897 40.0777 53.6199 41.65 53.5502 43.2172C52.7739 43.7409 51.9558 44.2003 51.1042 44.5911L51.4679 44.1596C54.0783 40.3306 47.3231 33.2828 49.9335 29.4588C50.6658 28.3875 47.358 19.9212 44.8372 19.5393C42.5955 19.2021 42.6901 19.8468 40.5181 20.318C40.2926 19.3814 39.9424 18.4791 39.4769 17.6348C39.6009 18.5756 39.5723 19.5301 39.3923 20.4618C38.6201 20.4916 38.0126 20.0017 37.1904 19.8766C31.9447 19.0781 32.4777 13.4289 33.9373 11.6384C35.4019 9.85292 40.2641 9.31726 42.5058 8.73695C42.7101 8.53857 43.1733 8.66257 43.3776 8.47409C47.6738 4.55959 53.4197 3.91131 58.5905 5.64631C64.1047 7.49655 67.5427 11.0776 69.3073 16.5982L69.8134 21.0161C70.2674 22.4366 69.6962 29.046 69.3073 30.4855C67.7953 36.0811 64.5753 33.2878 59.3489 39.0163Z" fill="#2F2E41"/>
<path d="M77.1892 96.7298L76.7075 59.3793C76.6824 57.7969 76.0334 56.2878 74.9006 55.1777C73.7678 54.0675 72.242 53.4453 70.6524 53.4453C69.8301 53.4453 69.0164 53.612 68.2609 53.9354C67.5054 54.2587 66.824 54.7318 66.2582 55.3258C65.6923 55.9199 65.2539 56.6224 64.9697 57.3907C64.6855 58.1589 64.5614 58.9767 64.605 59.7943L66.3001 98.577L66.3322 122.186C65.3332 122.608 64.4888 123.326 63.9138 124.242C63.3388 125.158 63.061 126.228 63.1182 127.307C63.1754 128.386 63.5648 129.421 64.2335 130.272C64.9022 131.123 65.8178 131.748 66.8558 132.063C67.8939 132.378 69.0041 132.367 70.0357 132.031C71.0672 131.696 71.9701 131.053 72.6216 130.189C73.2731 129.325 73.6417 128.282 73.6772 127.202C73.7128 126.123 73.4136 125.058 72.8203 124.153L77.1892 96.7298Z" fill="#FFB6B6"/>
<path d="M140.338 145.052C140.338 145.052 139.593 158.392 139.251 166H113.603C113.075 159.076 112.897 153.99 112.897 153.99L111.494 166H85.5694L83.9622 143.757L91.7291 124.589C91.7291 124.589 133.82 121.682 137.724 125.369C141.626 129.053 140.338 145.052 140.338 145.052Z" fill="#2F2E41"/>
<path d="M117.658 32.837C125.395 32.837 131.667 26.5924 131.667 18.8892C131.667 11.186 125.395 4.94141 117.658 4.94141C109.921 4.94141 103.648 11.186 103.648 18.8892C103.648 26.5924 109.921 32.837 117.658 32.837Z" fill="#FFB6B6"/>
<path d="M133.987 14.3569C132.548 15.0102 131.616 19.7414 130.485 18.6415C129.354 17.5416 129.429 16.1102 127.905 15.7043C126.673 15.3751 125.348 15.7513 124.225 16.3447C124.024 16.4494 123.83 16.5632 123.64 16.6765C123.515 16.5932 123.391 16.5149 123.257 16.4427C122.252 15.9074 121.08 15.7761 119.981 16.0758C120.849 16.3654 121.604 16.9195 122.139 17.6596C121.763 17.9104 121.382 18.1619 120.993 18.3847C117.739 20.2541 113.109 16.1892 109.685 14.6621C111.83 18.67 110.774 20.3299 108.911 24.4749L108.847 24.7109C108.952 23.6721 105.723 22.8979 105.911 24.3603C106.044 25.3986 106.946 27.7065 107.452 28.6232C103.851 24.478 101.39 19.4054 101.909 14.1726C102.022 13.0733 101.988 11.9135 102.558 10.9594C103.128 10.0102 104.317 9.34415 105.368 9.7061C105.279 8.0373 105.646 6.37565 106.429 4.89781C107.213 3.41997 108.384 2.18118 109.819 1.31314C111.253 0.445097 112.897 -0.0197475 114.575 -0.0319788C116.254 -0.0442101 117.904 0.396632 119.351 1.24368C120.696 2.02914 121.818 3.14004 123.051 4.09828C124.283 5.05652 125.703 5.89178 127.266 5.97088C128.257 6.01848 129.336 5.77753 130.188 6.28869C131.174 6.88181 131.343 8.12362 131.491 9.31854C130.611 9.40491 129.777 9.75049 129.095 10.3112C130.006 10.2187 130.922 10.4144 131.715 10.8705C131.73 10.8772 131.744 10.8854 131.758 10.8947C132.279 12.8696 132.226 13.3073 133.987 14.3569Z" fill="#2F2E41"/>
<path d="M85.6316 131.337C97.5618 117.434 93.5321 99.7502 88.7971 81.8995L89.6981 55.5286C89.7423 54.235 90.0985 52.971 90.7366 51.8433C91.3747 50.7156 92.276 49.7574 93.3644 49.0495L105.544 41.1278L110.284 34.3042L123.351 35.6051L130.597 43.2343L138.617 49.3304C140.631 50.8611 142.164 52.9331 143.034 55.3021C143.904 57.6712 144.075 60.2385 143.528 62.7015L135.853 97.2596C135.853 97.2596 139.063 115.175 137.104 117.153C135.146 119.132 130.098 117.154 134.101 119.375C138.904 122.041 143.272 121.549 140.841 123.969C138.41 126.389 141.487 129.754 141.487 129.754L85.6316 131.337Z" fill="#24CB77"/>
<path d="M90.7323 151.543L92.7212 137.435L84.7851 135.18L83.2154 150.169C82.5586 150.769 82.0828 151.539 81.8415 152.393C81.6003 153.247 81.603 154.151 81.8495 155.004C82.0961 155.856 82.5765 156.623 83.237 157.219C83.8974 157.815 84.7116 158.215 85.5881 158.375C86.4645 158.535 87.3684 158.449 88.1982 158.125C89.028 157.802 89.7508 157.255 90.2853 156.545C90.8197 155.835 91.1447 154.991 91.2237 154.107C91.3027 153.223 91.1325 152.335 90.7323 151.543Z" fill="#FFB6B6"/>
<path d="M105.841 43.6709C105.841 43.6709 83.2518 50.9907 82.7132 56.3465C82.1745 61.7023 82.3531 64.9809 79.969 86.4126L80.0946 144.144C80.0946 144.144 95.2395 147.372 93.6863 143.92C92.1331 140.469 92.6751 138.845 92.6751 138.845C92.6751 138.845 95.9222 137.569 95.1093 133.516C94.2965 129.463 98.3727 109.379 98.3727 109.379L100.945 73.3593L105.841 43.6709Z" fill="#24CB77"/>
<path d="M133.695 150.796L132.636 136.589L140.703 134.854L141.286 149.914C141.902 150.555 142.326 151.355 142.511 152.223C142.695 153.091 142.633 153.993 142.331 154.827C142.029 155.662 141.499 156.396 140.801 156.947C140.103 157.499 139.264 157.845 138.379 157.948C137.494 158.051 136.598 157.906 135.791 157.529C134.984 157.152 134.299 156.559 133.812 155.816C133.326 155.073 133.057 154.209 133.036 153.322C133.015 152.436 133.243 151.56 133.695 150.796Z" fill="#FFB6B6"/>
<path d="M125.7 42.1709C125.7 42.1709 147.761 50.9451 147.947 56.3245C148.133 61.7039 147.739 64.9639 148.711 86.5049L144.795 144.104C144.795 144.104 129.471 146.34 131.247 142.997C133.024 139.654 132.59 137.998 132.59 137.998C132.59 137.998 129.433 136.514 130.511 132.522C131.588 128.531 128.839 108.225 128.839 108.225L128.636 72.1144L125.7 42.1709Z" fill="#24CB77"/>
</g>
<defs>
<clipPath id="clip0_204_4790">
<rect width="219" height="166" fill="white"/>
</clipPath>
</defs>
</svg>
